/* XPM */
static char *_49eb20f8a6b48e4aa8819826292b579Zcw61DLrgY1PcwRP[] = {
/* columns rows colors chars-per-pixel */
"64 64 73 1 ",
"  c #E2E4DF",
". c #E5E7E2",
"X c #EFF1EC",
"o c #F0F2ED",
"O c #F2F4EF",
"+ c #F6F7EF",
"@ c #F7F7F5",
"# c #F7F8F0",
"$ c #F7F8F2",
"% c #F6F8F3",
"& c #F7F8F3",
"* c #F7F9F4",
"= c #F7F9F6",
"- c #F8F9F1",
"; c #F8F9F3",
": c #F9FAF2",
"> c #F8F9F4",
", c #F9FAF4",
"< c #F8FAF5",
"1 c #F9FAF5",
"2 c #FAFBF5",
"3 c #F8F8F6",
"4 c #F9F9F7",
"5 c #F9FBF6",
"6 c #F8FAF7",
"7 c #FBFAF6",
"8 c #FAFBF6",
"9 c #FCFBF6",
"0 c #FCFBF7",
"q c #FAFCF7",
"w c #FBFCF7",
"e c #FDFCF7",
"r c #FCFDF7",
"t c #F7F9F8",
"y c #F9F9F9",
"u c #F9FBF8",
"i c #F8FAF9",
"p c #FAFAF8",
"a c #FBFAF8",
"s c #FBFBF9",
"d c #FBF9FA",
"f c #F9FBFA",
"g c gray98",
"h c #FBFBFB",
"j c #FCFBF9",
"k c #FCFAFB",
"l c #FBFDF8",
"z c #FAFCF9",
"x c #FBFDFA",
"c c #FDFCF8",
"v c #FCFDF8",
"b c #FDFEF8",
"n c #FCFEF9",
"m c #FDFEF9",
"M c #FEFFF9",
"N c #FCFCFA",
"B c #FDFCFA",
"V c #FDFDFB",
"C c #FEFFFA",
"Z c #FAFAFC",
"A c #FBFBFD",
"S c #FAF9FE",
"D c #FBFAFF",
"F c #FDFBFC",
"G c #FCFBFF",
"H c gray99",
"J c #FDFDFD",
"K c #FEFEFC",
"L c #FFFFFD",
"P c #FCFCFE",
"I c #FDFDFF",
"U c #FEFEFE",
"Y c #FEFEFF",
/* pixels */
"KKKKKKKKKKKKKKKKKKKKKKCCCCCCCCCCCCkCFCACh7lhhkh7ewwCwwww*w5lllX.",
"KKKKKKKKKKKKKKKKKKKKKKKKCCCCCCCCKKKKKKKKkhChleCklCwwCwwwww5*5*X.",
"KKKKKKKKKKKKKKKKKKKKKKKKKKCCCCCKKKKKKKKKCAkhChhhCwCwwwww*55*5l*X",
"KKKKKKKKKKKKKKKKKKKKKKKKKKCCCCCKKKKKKKKKFCCCkCChwwCwwwwwwww5llll",
"KKKKKKKKKKKKKKKKKKKKKKKKKKKKKKKKKKKKKKKKKKKAkCC7wCwwCwwwlll5*5**",
"KKKKKKKKKKKKKKKKKKKKKKKKKKKKKKKKKKKKKKKKKKKCChhhwwCwwwww*555****",
"KKKKKKKKKKKKKKKKKKKKKKKKKKKKKKKKKKKKKKKKKKCkhkChCCwwwwww*5*55l5l",
"KKKKKKKKKKKKKKKKKKKKKKKKKKKKKKKKKKKKKKKKFCCChCh7wwwCCwwwll555***",
"KKKKKKKKKKKKKKKKKKKKKKKKKKKKKKKKKKKKKKKKKKKKCAhhCkhhC0Chlllfltlt",
"KKKKKKKKKKKKKKKKKKKKKKKKKKKKKKKKKKKKKKKKKKKKFCChhleChhhhfffltllt",
"KKKKKKKKKKKKKKKKKKKKKKKKKKKKKKKKKKKKKKKKKKKhCkklhChkhkkCfllftltt",
"KKKKKKKKKKKKKKKKKKKKKKKKKKKKKKKKKKKKKKKKKKFChCCehhhClelefCflltlu",
"KKKKKKKKKKKKKKKKKKKKKKKKKKKKCCCCKKKKKKKKKKhCFChh0hkehhkhfflftlt*",
"KKKKKKKKKKKKKKKKKKKKKKKKKKCCCCCCKKKKKKKKKKKCCACkChClChChflflltlu",
"KKKKKKKKKKKKKKKKKKKKKKCCCCCCCCCKKKKKKKKKKKCkkhhhChhhChlKfllutltt",
"KKKKKKKKKKKKKKKKKKKKKKCCCCCCCCCKKKKKKKKKKKACCKChhhCkkKflKfulltlu",
"KKKKKKKKKKKKKKKKKKKKKKKKKKKKKKKKKKKKKKKKKKKKKAAKAFfKFfKKlhlfffft",
"KKKKKKKKKKKKKKKKKKKKKKKKKKKKKKKKKKKKKKKKKKKKKKKKFAfFKfFfflfuffff",
"KKKKKKKKKKKKKKKKKKKKKKKKKKKKKKKKKKKKKKKKKKKAAKKAFAKFKFFlflllffft",
"KKKKKKKKKKKKKKKKKKKKKKKKKKKKKKKKKKKKKKKKKKKKAKKAAFKffFlFKlhuffff",
"KKKKKKKKKKKKKKKKKKKKKKKKKKKKKKKKKKKKKKKKKAKKKKAKFAFfKFFlfflfffft",
"KKKKKKKKKKKKKKKKKKKKKKKKKKKKKKKKKKKKKKKKKKKAKAAAAFKfKflFflflffff",
"KKKKKKKKKKKKKKKKKKKKKKKKKKKKKKKKKKKKKKKKKKKAKAAAFAFFFFflfClfffft",
"KKKKKKKKKKKKKKKKKKKKKKKKKKKKKKKKKKKKKKKKAAKKAAKKAFfKfKKFflflffff",
"KKKKKKKKKKKKKKKKKKKKKKKKKKKKKKKKKKKKKKKAKKAAAKAAFAAKAAh7lfflffff",
"KKKKKKKKKKKKKKKKKKKKKKKKKKKKKKKKKKKKKAKKAKKKAAKAAAKfhl7hfllfffff",
"KKKKKKKKKKKKKKKKKKKKKKKKKKKKKKKKKKAAAKAKKKAAKKAAFAAAhh7hlfluffff",
"KKKKKKKKKKKKKKKKKKKKKKKKKKKKKKKKKKKKKKAKAAKKAAAKAAAAhhhhflluffff",
"KKKKKKKKKKKKKKKKKKKKKKKKKKKKKKKKKKKAKKAKKAAAKAAFASFAhhhhfuuuffft",
"KKKKKKKKKKKKKKKKKKKKKKKKKKKKKKKKAAKKAKAAAAKAAFAASAAAhh7*luuufttf",
"KKKKKKKKKKKKKKKKKKKKKKKKKKKKKKKKKKAKKAKAAKAKAAAAASAAhhhttluuftft",
"KKKKKKKKKKKKKKKKKKKKKKKKKKKKKKKKKAKKAAKAAKAAAAAFSAAAth7hltuutftf",
"KKKKKKKKKKKKKKKKKCCCKKKKKKKKKKKAKKAKKKAAFfKKAAAAASASyhyh*htltutt",
"KKKKKKKKKKKKKKKKCCCCKKKKKKKKAAKKKKKKAKKAKfFfAAAASSyAhyhyh*lttttt",
"KKKKKKKKKKKKKKKKCCCCKKKKKKKKKKAKKKAAKKAAKFAAAAAASSAShhh@tltltftt",
"KKKKKKKKKKKKKKKKCCKKKKKKKKKKKAKKAKKKAAAKfFAAAAAASSShth7hh*ltfttt",
"KKKKKKKKKKKKKKKKCCCCKKKKKKKKKKAAKKKKAAAKAAAAAAtStAtAhyh7ltlttftt",
"KKKKKKKKKKKKKKKKCCCCKKKKKKKKAKKKAAKAAKAAAAAAAAAASAShyht7tltlfttt",
"KKKKKKKKKKKKKKKKCCCCKKKKKKKKAKKKKKKAAAAAAAAAShhyhStShyh7ltlttutt",
"KKKKKKKKKKKKKKKKCCCCKKKKKKKKKKAAKAAAKKAAAAAAtSSAyAAhyh3htltluttt",
"KKKKKKKKKKKKKKKKCCCCKKKKKKKKKAKKAAAKhKAAh7thhyhyAyhyh*h**5u*u*t*",
"KKKKKKKKKKKKKKKKCCCCKKKKKKKKKKAKAKAAAKhKhhyhyhyhSAyhhh7h5*uutu*t",
"KKKKKKKKKKKKKKKKCCCCKKKKKKACAAKKKhKAAhKhhyhyhyhytAhh7*75*5w*utt*",
"KKKKKKKKKKKKKKKKCCCCKKKKCkCFKKKAAAKhKhAAyhyhyhyhSA*hhhw75*5**u*t",
"KKKKKKKKKKKKKKKKCCCCKKKKCkCCKKAKhKAhKAhKhyhyhyhyyyyy7t7*5*l*u*t*",
"KKKKKKKKKKKKKKKKCCCCKKKKACKhAKAKhAKhKhAKyhyhyhyhyyyyt7*7**55tu*t",
"KKKKKKKKKKKKKKKKCCCCKKKKCFkKAKFFKKAAAAhhhyhyhyhyyyyy7t7*5*5*utt*",
"KKKKKKKKKKKKKKKKCCCCKKKKhKCCAACkAhhKhKKAyhyhyhyhyyyyt7tw*555*u*t",
"KKKKKKKKKKKKKKKKKKKKFCCFkCkkkCkkFFFFkkkkddddddddhyhyhhyh@3*h@@@@",
"KKKKKKKKKKKKKKKKKKKKCAhKCkkCkCeCFFFFkkkkddddddddyhyhthhy@77@h@@@",
"KKKKKKKKKKKKKKKKKKfCkCACekeCkeCkFFFkkkkkddddddddhyhyhhh*ht7h73%%",
"KKKKKKKKKKKKKKKKCKKCCFCkCCkkCkkCFFkkkkkyddddddddyhyh*hh7@7y@33&%",
"KKKKKKKKKKKKKKKKCCwwwCeC0k0C00eekk0k0k0700d0y0dk7th7h@hh*h*77*%%",
"KKKKKKKKKKKKKKKKwCCCCClwee0Cekekk0k0k07h0yk300037h*h7h*h7*7*7*&%",
"KKKKKKKKKKKKKKKKwCCewlwCe0kee000ekek3ky030003kd7h7777777*7&77%&&",
"KKKKKKKKKKKKKKCCCClCwCwCC0eeeCC0keke0d00kd0y0d07@hthth*77*77;7&&",
"KKKKKKKKKKCCCCCCCwCCwlww000Cee00e700777700&77777&w&ww&7*w*:w&&:*",
"KKKKKKKKKKCCCCCCClCwwCCwkC0eCekC7e0777770;007777www5&w*wwww::&;&",
"KKKKKKKKCCCCCCCCeCeCCwlweeee00eee7e7007700007777www7w&&:7w&w;&&&",
"KKKKKKKKCCCCCCCCCCCCeClCCek00Cee7e7C00000;0;7777w&ww&ww:5&:&;-&&",
"KKKKKKKKCCCCCCCCCCeeeCCe0eeeeeee9999000999999990ww:w:w&&::-----+",
"KKKKKKKKwCClClCCeCCeeeee0eeeeeeeee9900999999999ew&:w&w:w:&----++",
"KKKKKKCCCCCClClCeCCCCeCeeeeeeeeeeeee9999999999;e:ww:&:w::&-+-+++",
"KKKKKCCCCw7CCClCCCeeCeeeeeeeeeeeeeee9999999999www&www:;:-;--++++"
};
