/* XPM */
static char *JUQxJTg1JUQwJUIwJUQxJTgxJUQwJUJBJUQwJUI4Lg__[] = {
/* columns rows colors chars-per-pixel */
"64 64 255 2 ",
"   c #010104",
".  c #03040A",
"X  c #09060C",
"o  c #040A0D",
"O  c #0A0A0D",
"+  c #080905",
"@  c #0B1304",
"#  c #050E11",
"$  c #0C0C12",
"%  c #070711",
"&  c #120E15",
"*  c #180C16",
"=  c #0C1115",
"-  c #0D1419",
";  c #0B1618",
":  c #121216",
">  c #13151A",
",  c #151A1E",
"<  c #1B1A1D",
"1  c #191618",
"2  c #130E0B",
"3  c #380205",
"4  c #341511",
"5  c #252C13",
"6  c #1B1D22",
"7  c #141D21",
"8  c #1C2225",
"9  c #1C2528",
"0  c #1C3230",
"q  c #222224",
"w  c #23252B",
"e  c #2A2B2C",
"r  c #25292C",
"t  c #2A2C32",
"y  c #262D31",
"u  c #2B3437",
"i  c #34393B",
"p  c #333928",
"a  c #192512",
"s  c #470605",
"d  c #581717",
"f  c #4E1010",
"g  c #6B0F12",
"h  c #522517",
"j  c #761A26",
"k  c #592C2C",
"l  c #743637",
"z  c #6B2F2C",
"x  c #66201B",
"c  c #38472F",
"v  c #2B4000",
"b  c #4C5135",
"n  c #75483A",
"m  c #6C4037",
"M  c #556D33",
"N  c #716F37",
"B  c #383D42",
"V  c #693940",
"C  c #3A4345",
"Z  c #434A4D",
"A  c #454648",
"S  c #484D51",
"D  c #4A5456",
"F  c #545759",
"G  c #4E4F4F",
"H  c #74514E",
"J  c #5A6451",
"K  c #686C59",
"L  c #6A7352",
"P  c #585E62",
"I  c #635D64",
"U  c #5B6566",
"Y  c #5B716F",
"T  c #65696C",
"R  c #6B7766",
"E  c #737A6A",
"W  c #676D73",
"Q  c #6B7375",
"!  c #697677",
"~  c #737B7D",
"^  c #757779",
"/  c #796C6D",
"(  c #8E0B16",
")  c #861728",
"_  c #9A182A",
"`  c #841429",
"'  c #A41629",
"]  c #AF1932",
"[  c #992335",
"{  c #882B2F",
"}  c #A82738",
"|  c #B32C37",
" . c #A00B1F",
".. c #8F4A3C",
"X. c #AE493B",
"o. c #923742",
"O. c #B83246",
"+. c #CA3447",
"@. c #E2344B",
"#. c #895957",
"$. c #8B534C",
"%. c #AA4F4D",
"&. c #8E6D4D",
"*. c #AD694E",
"=. c #987678",
"-. c #916E6F",
";. c #AC7475",
":. c #9B5B6A",
">. c #D5575D",
",. c #C92F39",
"<. c #7A8A56",
"1. c #7B886A",
"2. c #7A8576",
"3. c #7E906A",
"4. c #8C8757",
"5. c #848A7C",
"6. c #899578",
"7. c #8F936F",
"8. c #AD8E6E",
"9. c #96A575",
"0. c #A9B178",
"q. c #A1805F",
"w. c #C8906F",
"e. c #777D81",
"r. c #9B7E85",
"t. c #D36D83",
"y. c #7B8486",
"u. c #6E8080",
"i. c #868988",
"p. c #8B9787",
"a. c #969A8B",
"s. c #888D91",
"d. c #8D9699",
"f. c #8A9596",
"g. c #949B9E",
"h. c #979996",
"j. c #9C8584",
"k. c #A79696",
"l. c #B58E8C",
"z. c #99A688",
"x. c #9AA498",
"c. c #90AA91",
"v. c #A5A89B",
"b. c #ADAD90",
"n. c #989EA1",
"m. c #9DAAAB",
"M. c #9AA4A6",
"N. c #97B1AD",
"B. c #A4AAAD",
"V. c #A6A8A8",
"C. c #ABB4AD",
"Z. c #B6B7AC",
"A. c #A9AEB2",
"S. c #ABB2B4",
"D. c #ADB9BB",
"F. c #A9B5B6",
"G. c #B1B6BA",
"H. c #B4BBBB",
"J. c #B7B8B6",
"K. c #B5A7AB",
"L. c #B39DA4",
"P. c #D59391",
"I. c #C3A996",
"U. c #CFB5B3",
"Y. c #E6A19E",
"T. c #B9C899",
"R. c #BAC7B1",
"E. c #C3C7BB",
"W. c #D5C4BB",
"Q. c #CCD1B3",
"!. c #E7E5BF",
"~. c #B7BEC2",
"^. c #ACBEC2",
"/. c #C4BEC0",
"(. c #BBC3C5",
"). c #BDC5C9",
"_. c #BAC7C7",
"`. c #B5CFCE",
"'. c #C3C5C4",
"]. c #C5CBC4",
"[. c #CBCCC5",
"{. c #C3C6CA",
"}. c #C3CBCD",
"|. c #CBCDCB",
" X c #CBC7C4",
".X c #D4CDC4",
"XX c #D7CBC8",
"oX c #CDD2CC",
"OX c #C8D3C5",
"+X c #D3D3CC",
"@X c #D8DACF",
"#X c #D9D4CA",
"$X c #C5CED1",
"%X c #CBCED2",
"&X c #CBD3D5",
"*X c #CDD5DA",
"=X c #CDDBDC",
"-X c #C5D6D6",
";X c #D3D5D4",
":X c #D4DBD4",
">X c #DBDCD4",
",X c #D2D6DA",
"<X c #D3DBDC",
"1X c #DDDEDB",
"2X c #DAD5D3",
"3X c #E4D4CB",
"4X c #E4D5DC",
"5X c #E2DDDC",
"6X c #E5DAD6",
"7X c #F3CFCF",
"8X c #DCE4CA",
"9X c #CCE2D9",
"0X c #DDE1DC",
"qX c #D7E3D7",
"wX c #D2E7CB",
"eX c #E1E2DD",
"rX c #E2E2DD",
"tX c #E8E4D9",
"yX c #ECF0D6",
"uX c #D5DEE2",
"iX c #DCDEE2",
"pX c #CBDDE0",
"aX c #E7DCE1",
"sX c #F7D8E0",
"dX c #CDE4E4",
"fX c #D4E3E3",
"gX c #DCE3E4",
"hX c #DCE9E5",
"jX c #DCE6E9",
"kX c #DDEAEB",
"lX c #D4EBE9",
"zX c #DCF0EC",
"xX c #D8F0F4",
"cX c #E3E4E2",
"vX c #E4EAE4",
"bX c #EAEAE5",
"nX c #E3E6EA",
"mX c #E3EAEC",
"MX c #EAECEB",
"NX c #EAE3E4",
"BX c #F6E9E6",
"VX c #E7F1EB",
"CX c #F4F8EB",
"ZX c #E5EDF1",
"AX c #EAEEF2",
"SX c #E3E7F1",
"DX c #E5F2F3",
"FX c #EAF3F5",
"GX c #EDF5F9",
"HX c #EDFAFB",
"JX c #EBF9F6",
"KX c #F3FCFE",
"LX c #F9FFFF",
"PX c #F3F4F6",
"IX c #FBEAF0",
/* pixels */
">X0XvXbXh.  e   i Z.MXcXMX1XMXMXbXMXtX0XMXtXqXrX1XeXbX>X5X>XcXeX,XMX{.X O t * v.cXaX0XcX0XeXrXrX0XeX1X1X1X1X>XrX2X>X>X@X@X@X@X@X",
";XrXrXrXE.@ O p   O s.bXPXnXaXMX2X0X+X XE.J.U..X2X].[. X;X5X5XbXAX1XA $ < q   J.cXeXeXcXeXeXrXrXeX1X5X1XeX>XeX>X>X>X>X:X@X@X@X@X",
"vXrXrXrXeXF + 2 1 q . U %XaXuXnXk.i.A : +   2 q +   1 b 5.Z. XcX;XG X w e   1 ;XaXgXcXeXeXeXeXeX5XgX1X0X1X1X>X>X>X>X2X2X@X@X@X@X",
"VXrXMXqXJ.h.G     + q   6 S.V.^ + + + O : : O +           + e ^ B X e * + i ^ |.gXcX5XgXeXeXeXeX0X5X1X1XeX>XeXrX>X1X>X>X@X2X@X@X",
"rXrXMX1Xh.x.S.T e     w .       1 : $ +   O 6 e A e $ q e q       > 6 &   ^ h.XXcXgX5X5XeXeXeXeX5X0X5X0X0X1X0X>X>X>X>X1XqX>X@X@X",
">XMXcXbXG.v.}. Xh.i O   6 A O w > > < 6 1 > 6 > T T 6 w < > & 6 1     < O q V.,X5XiX1XeXeX>XrX>XcX1X1X1X1X1X>X>X1X1X>X>X@X@X@X>X",
"rXvX0XMX;XK.(.}.G.q O 1   $ t $ - % 6 t t r 7 . ^ ^ . q t w 6 % >   $       /.'.5X0X>X0X0X5X0XrX1XgX1X1X0XeX>X0X>X1X>X>X>X@X8X>X",
"bX1XvXeXJ.S.'.J.e.& $ % , 6 : 6 - > t u 8 > = . W e.  7 6 w t 7 $ . O X : e V.MXgX5XeX5X0X0X0XeX1X5X5X1X1X>X1X5X1X>X8X6X>X>X>X>X",
"PXvXnXnXiXA.{.{.~ &   6 w % w > % 6 B e.W S w % P d.7 % W d.W B O . o .   / (.vX;X2XcXbX2XvXrX0XgX5X0X5XeX>X0X1X>X1X>X>X>X@X@X@X",
"aXvXNXcXnXK.H.}.A.F t B % 6 % & w 7 U ^.$X^.! % P y.B 7 ~.KX}.W > 1   & 1 F +X1XAX5X1XMX>XbXrXrXeXcXeX0XeXeX>X>X1X>X>X>X>X@X@X@X",
"iXmXcXiXMX{.%XaXV.A u 6 % % . 7 = 7 m.ZXAXKX~.# D g.u W GXLXFXF.w & & $     ^ E.PXcX;XvXrXrXeXvXcXeX5XeX1X1X>X1X>X5X>X>X>X@X@X@X",
"vXnXnXiXaX,X%X~.G & * . & . . % - U *XHXSXKXSXD B A.B $XKXSXLXFXr.  6     1   T %XaX2XcXeXeXeXvX5XcXeXeX0XeX5X1XeX>X>X>X@X>X@X@X",
"cXcXAXnX;X,Xn.C & - % . % $ - - U `.uXDXHXHXkXF.B y.u.HXHXHXKXkXF.U   X 6   q + i.;XaXvX1XeXrXtXcXcXeXeX0X>XrX8X1X0X6X>X>X>X2X@X",
"nXaXMXMX;X,Xr.% 6 & % % % . t S M.HXkXDXJXHXJXDXe.e.^.HXHXHXfXkXAXn.e $   O <   A |.bXvX2XeXrX0XcXcX5XcXrXrX5X0X0X1X8X>X8X>X@X>X",
"nXnXaXjXaXuXT & w . % % * % B T e.F.zXVXzXKXHXHXg.P `.JXKXDXzXKX&Xr.u w O 1 <   w |.BXrX+X0XrXeXvXeXcXcXeXrX0X>X5X0X>XrX>XqX8X>X",
"%XMX,XiXSX}.B . . % - > % W Z B c ; m.<XfXFXdX9Xg.! m.JXZXhXkXA.B O B C :     O q |.FXeX;X1XrXrXcXcXcXcX0XrX0XtX0X5XeX>X>X>X>X>X",
"aXnXcXiXiX~.6 $ . 7   . S R.i.+ D.M.e.i y.n.~ d.T Q s.G.e.y.i C T A.P U F T C   + S.bXAXcX5XvXvXcXmXmX0X0XgXcX>X5X6X5X5X1X>X9XwX",
"nXcX1X,XnX{.S $ 7   8 g.}.hXD.c Z i.s.    o i P w W U u A     e.).n.u f.A.nX~   u ~.gXmXcX1X1X1XcXmXVX0X0XgXeX5X5X5X6X5X>XqX9X=X",
"vXiX;X,XiXG.F . % B B.KXDX=XqXS.U     . u 9 B S   y.e.. Z 8 $   . ; Y G.&X{.~.T T '.;X1XiX<X<XvXcXmXmXrX0XcXaX1XaX5X5X5X1X1X:X:X",
"cXbXcX1XiXA.B . w A.SXiXhX<X&XhX*Xg.f.n.S 6 Z S % s.d.7 B w 9 Z Y e.B.*X).uX{.e.T '.;X>X<XcXcXbXvXMXbXgXiXcXcX2X5X5X4X5X4X>X1X>X",
"@XrX1X+XiXG.: . e.SX*X*XFXuXS.fXaXAX,XS.A W n.W . W A.~ d.T C ~.).).$X^.G.,X).n.P R.uXuX;XvXcXvXvXbXbXcXiXcXcX1XaX5XaX4X5X4X2X5X",
"qXtX:X+X,XM.  9 S.nX*XGXZXuX~.fXGXKXMXnXs.G.jX,XW e.{.n.{.%XA.%XSX*X*XG.SXpX}.V.G C.1XaX;XgX2X1XnXMXnXcX1XcXcX1XiXuX1X4X4X4X4X4X",
"8X@X8X8XR.J   S }.gX&XkXZXGXhX-XjXLXLXAX~.,XnX%Xn.i.,X,X%X,X{.~.uXSX$XjX).%X{.}.c d.}.0X;X1X>XcXNXNXbXaXaXcXcX<XfX1XiXiXiX4X4X4X",
"z.z.Z.E.^ +   F B.1XjXhXmXhX0X9X<XLXLXuXuXnXuXG.Q A.,X,X$XiX{.uXSX*X&X&X{.~.'.n.u ^ G.<X,XcX1XPXNXBXBX5X5XNXcX<X0XfXiXiXiXaX4X7X",
"b.z.a.7.b.p.p J ].hX:XqXvXqXhXoXAXiXGXnXiXnXuX{.{.*XAXnXuX<X,X}.*X*X).).$X).A.G.A J ).&XvXcX+X5XaXIX2X/.IXsXBX{.0X&XhX<XvX2XXXaX",
"9.9.7.b b 6.1.2.R.vXqXvXzXwXOXqXMXGXAX<XnXKXnX}.AX*XAX<X*XgXuX,XjXuX~.~.*X<X~.G.T # V.1X;XvXvXbXIXj.4 V =.U.XX4XCXgXjXqX,X<XaXaX",
"8XT.b.7.p @ a K E a.x.R.R.R.R.JXPXLXSXiXnXAXAXnXnXiXAX%XiXSX<XuX$X&XF.A.H.%X~.A.^   V.cX|.mX1XbXU.h f k f d #.sXBX>X;XqX<XiXaX,X",
"yX8XQ.6.5   @ p 5.z.2.5.2.2.L _.LXAXuXAXAXAXuX).s.e.s.^ i.G.AXZX}.&X).^.$X&X%XB.C + H.<X1XMX;XBX7Xk V o.z V f :.sXBX+X0XqXcX1X1X",
"b.Q.b.a.p.a.a.x.p.a.2.1.R 2.J R.MXmXiXAXGXLXG.B % . . o   y (.jXuX*X).).FXZXgXn.> r H.;XMXbX6XBXP.:.;.) o.` j d Y.sXBX6X:XhXqXvX",
"a.v.5.p.5.T R 5.C._.C.V.c.p.R p.mXnXnXKXAXiXU   - F T ~ Z . D mXjX=X$X*XKXAXnXg.8 c J.cXcXiXCXXXl.t.g } ] o.[ s z I.sX6X+XrX>X>X",
"[.+XJ./     + = 2.V.C.C.C.v.p.2.<XgXcXGXgXB.> 7 7 f.M.n.e.=   ).SXjX$XzXHXFXiXV.8 Z }.cX1X1XrXk.Y.%.( +.+.' ] j s x U.yX+X0X0X+X",
"Z.Z.|.h.q q y , W G.;XqXvXhXqXR.B.jXjXuXjXB.  w   . 6 w   $ % A.ZX*Xx.<XqXvX].i.  G 2X;XcXcX|.=.P.g | O.] +._ [ o.3 l.BX@X2XtXeX",
"k.K K I * q + w A A.GXGXDXGXkX&X_.D.uXmXKX^.o 7 r y w . S P   ~.LXqX5.c 6.z.z.L + K 3XtX#XbXOX-.&.X.>.@.,.,._ [ [ d #.sX4X2X2X3X",
"yX.XU.h.F + 1 O % F A.GXmXGXDXfX_.(.&XuXhX_.C 7 Z o = # t B . S.CXOX6.z.3.c M M L / b.BXtXQ.@X7.n z _ ( ' %.} g ) j s W.bX1X5XsX",
"XX3X2XW.j.+ < < X 7 e.SXFXKXKXZX_.F.^.fXFX=Xi.# . 7   ,   . s.iXbXR.2.c.z.L b J J K K z.tXCXR.b 4.4.w.w.>.X.[ [ ) j 3 XXzX9X,XaX",
"yX3XyX3Xk.< X < 6 % F S.gXKXLXGXjXN.f.A.<XuX$Xy.i 7 = r t W uXSX0Xx.R.v.L 7.L <.M L R a p 4.L 9.0.7.&.8.;.{ { O.[ g V nXqXlXiXaX",
"3X#X3XZ.p.e 1 1 & . t A S.mXLXKXKX$XD.m.`.).~.m.! 7 # D s.M.%XiXD.C.qXv.1.<.5 M 9.3.R.T.z.9.L N v 4.&.f d x j x o.d V XXhXjXaXuX",
"a.5.5.j./   * X % O > . W |.FXKXKXfXF.u.f.^.m.n.Q y.^ Q Q e.{.{.a.x.oX8Xc.1.J + 3.c.c.R.yX8X9.M 7.<.h f { x s h 3 3 2 / 1XpXSXiX",
"tX#X XZ./ + 1 > $ $ 6 . t M.&XjXJXKXmXF.d.g.T B # 8 F . 6 e.s.y.! -XqXqXc.9.3.c c R.Q.c.T.T.T.0.3.0.<.4 3 h z n r.;.I k.aX1X,X$X",
"5XBXNXi.  < X & .   , > + i.J.<X*XHXKXuXf.g.m.d.i.W U ~ n.d.m.r.F.9X=X:XK 6.p.L 3.R.yXyXQ.T.9.N a M 0.0.&.*.&.*.%.H t.Y.U.sXaXIX",
"5X@Xv.b   X   : O   &   & r ^ E.jXlXJXHX_.e.! g.B.M.n.M.A.B.n.d.<XkX<X>Xp.5 a.5.p.wXqXwXyX!.8.N <.M v 0.Y.w.X.,.+.( g g j :.Y.sX",
"tXJ.i.2 < & & & $   o . + 1 G V.&XfXZXDXjX).g.e.~ i.s.s.i.g.~.jXkX`.hX).6.@ K p.1.c.wXyXCX!.0.7.0.T.N N w.*.( @.@.+.O._ ` [ [ t.",
">X+X5.1 q q O : $     + + + q 2._.uXxXjXkXGXlX).M.d.s.g.G.,XSXZXHXdX=XC.A 2 + R c.p.R.`.Q.T.I.0.0.0.N N q.X.| ,.] +.+.} [ ` j t.",
"+XbXs.q 1 6   > . X   +   + + G d.R.iXSXkXDXDXDX,X,XuXgXSXAXAXAXxXdXF.Q q i 2 T 2.J N.R.I.b.&.;.0.<.&.*.*.X.>.' | ] } | O.( :.7X",
"|.+X2.  1 o $ X   $       2 + c f.A.=XmXDXDXZXZXSXKXLXGXAXnXAXHXxXpX^.D B A G s.N.u.{.vX3Xl.n ..*.w.*.{ O.O.| | _ _ _ O.] ` Y.sX",
"rXJ.A   O < &     O O   + 2 + r Q m.=XkXZXKXKXHXLXGXmXAXGXGXAXjXHXxX`.M.^ t S M.lX(.%X%XU.=.d z ..w...g ] |  .] _ _ ` } g %.7X7X",
"|.i.O 1   w % . O . X   + + + 1 , ! _.lXZXDXGXmXGXGXKXKXGXAXSXZXxXdX`._.F w A A.pXpXiX2X3Xj.x z l &.h h g } ] ] ] } ` ` ` P.7XW.",
"i.i   < $   % & >   +   +   + @ 7 P M.$X=XjXFXKXGXAXSXAXnXAXFXDXdX`.N.e.* X F K.*XDXFXuX4X;.d l n m 4 z g `  .O.] ` j j P.sXXXXX",
"1 : O O .   O & %     o X     = ; 0 u U R.`.ZXzXjXHXHXFXDXmXkXDX-X`.Q B X X S k.=XjXSX;XL.r.f V z l k l d s ) { j x x I.sXW.3X5X",
"* * & O   X X & X X     . .     # 7 7 C Y g.$XfXSXDXFXGXKXDXmXDXdXd.D & q * I i.&XmXkX*XK.r.k V f 4 4 k d 3 g { z s &.Y.XXtX2X[.",
"& & & &     X % % X X . . . .   . ; o , 9 Y m.).DXmXfXfXjX=X&XdXdXN.W 6 * X I S.&XkXjXuX~.L.r.:.:.H $.#...k d d f f ..b.XX3X#XE.",
"& & * & X X X O $ X $ 6 7 .   # o # # # ; D g.^.uXSXjXfXjX<X$XdXdXy.F w < < T {.hXDXuXuX/.L.L.l.-.-.r.:.$...d s h h n I.3X.X|.].",
"X & > $ X . . X X $ 6 t 6 .   o $ . ;   . 8 D P d.`.kXkXzXzX9XdXN.y.C 0 8 t F ~.JXJXqXhX|.k.k.r.r.-.j.r.;.$.k m n h l.3XW.tX[.OX",
"X & * & O . . X . > t t 6 $ .   $   $ .     o # ~ (.hXlXjXjXdX9X^.y.D 7 w 8 F &XDXzXzXDXiXL.k.r.r.-.=.#.#.#.m n h $.U.3X.X#XoXOX",
"X O & > % .   . % 1 r i B t 7 % O   $ # - ; ; u s.`.lXlXlXkXlXlXdXy.D ; F U e.vXzXjXzXqXcXJ.L.k.r.-.I H H H k k m K.I..X6XR.oXoX",
"X & > * & X . . & # 6 Z P G i u $ . X : # = o C y.F.-XfXxXxXlXdX`.^.D 0 ~ y.^ =XfX9XVX9XPXNXtX5X{./.U.W.K.H b #.U.W.3X3X.X XOXoX",
". X & & $ O . . > # 7 u S T T P % e > > > #   y D m.=XdXxXlX`.dX`.N.0 C y.Y Y dXhXhXhXhX0X1X5X5XtX2X6XBX.X7.j.3XW.W..X.X.X[.OX[.",
"  % , > #   . % . $ t C D Q e.Q F S 6 $   , 9 0 Y F.=X=XlXlX-X9X`.N.u.y.y.Y g.xXnXjXjXgXgXgXgX1X2X#X5X6X3XW..X6X.X!..X.X+X[.|.OX",
"  % 6 1 : o o %   = w u C Q s.s.W F P U 8 = 9 i f._.jXlXlXlX=XdX`.`.N.y.Y 8 N.xXgXcXfXiX0X<X1X>X+X2X+X.XXX5X@X.X.XW.OX[.[. X X].",
": > > 6 6 1 $ # # o # , u P Q Q s.s.m.M.B ; B ! D.uXkXlXhXfX=XdXdXdX`.N.F u _.kXnXvXcXcXgX0X0XqXeX1X>X>X+X|.|.[.+X+X+X[.+X[.+X[.",
"> : & 1 6 7 = o o o o ; y y B C y._.`.D.s.d.m.(.$XfXjXlXfXuX*X9XpX=X`.y.U u.}.ZXiXaXiX1X1X>X<X:X>X2X:XqX;X[.OX:X[.|. X XE. X XE.",
"o % > > > = o . ; # = ; ; # ; u C y.M.(.=XjX&XfXkXZXmXjXkXjXjXjXuX`.N.e.y.F.{.gXaXaXaXuX<X<X9X;XoX+X+XoXoXoXoX|.|.OX|.[.[. X X X",
"$ = > , < > = O ; - # # # . # u P ! g.-XlXfX*XHXZXkXjXkXmXkXjXjXjX-Xm.f.D.(.%X<XaXaXNXcXcX0XhXqX,X1X:XoXoX&XOX].&X&X+XXX|.XXXXXX",
"8 7 > 8 r y 6 # o o o o ; # # ; 0 C u.F.D.(.$X<X=X$X$X*X,X<X*X*X).^.d.M.$XA.%X%X|.|.XX X{.'.R._.'.R.E.'.(.H.R._.J.J.J.J.J.S.U.Z."
};
