/* XPM */
static char *a15d80ef5ec04c3dfbb2a9363be92fe9kOmyIgC9qm8ZKOR2[] = {
/* columns rows colors chars-per-pixel */
"64 64 212 2 ",
"   c #550294",
".  c #580F95",
"X  c #581594",
"o  c #5D2799",
"O  c #5F3599",
"+  c #5F399B",
"@  c #612B9D",
"#  c #643B96",
"$  c #63359A",
"%  c #623C9A",
"&  c #5D14AB",
"*  c #5C28A0",
"=  c #632AAB",
"-  c #6634A1",
";  c #693AA4",
":  c #6634AC",
">  c #693BAD",
",  c #6A2AB6",
"<  c #6A33B3",
"1  c #6C3CB3",
"2  c #6F31BB",
"3  c #703DB7",
"4  c #7331BF",
"5  c #723CB9",
"6  c #67449D",
"7  c #694498",
"8  c #66489D",
"9  c #6F549D",
"0  c #74589D",
"q  c #6744A2",
"w  c #6B46A4",
"e  c #6B4AA4",
"r  c #6D45AC",
"t  c #6E4BAB",
"y  c #714FA7",
"u  c #714CAD",
"i  c #785DA1",
"p  c #7654AB",
"a  c #7A5AAA",
"s  c #6E43B1",
"d  c #6F48B1",
"f  c #7244B5",
"g  c #734CB3",
"h  c #794DB7",
"j  c #7443BA",
"k  c #7844BD",
"l  c #764CB9",
"z  c #7A4DBB",
"x  c #7551B3",
"c  c #7A54B5",
"v  c #7758B0",
"b  c #7D5BB4",
"n  c #7751B8",
"m  c #7C54BB",
"M  c #7E59BC",
"N  c #7D64A4",
"B  c #7F64AA",
"V  c #7E63B5",
"C  c #7839C3",
"Z  c #7C42C2",
"A  c #7E4DC2",
"S  c #7E51C1",
"D  c #834BBE",
"F  c #894CBE",
"G  c #8456B4",
"H  c #825EB6",
"J  c #8354BD",
"K  c #8A53BD",
"L  c #825CBD",
"P  c #8B5CBD",
"I  c #836AA7",
"U  c #8875A5",
"Y  c #8974AC",
"T  c #8E7CAB",
"R  c #917CAE",
"E  c #8464B5",
"W  c #8A64B6",
"Q  c #8469B4",
"!  c #8362BD",
"~  c #8D63BD",
"^  c #8568BC",
"/  c #8B6ABB",
"(  c #9268BD",
")  c #8B72BB",
"_  c #8E79BA",
"`  c #9379B7",
"'  c #927CBF",
"]  c #8543C2",
"[  c #864FC2",
"{  c #894BC2",
"}  c #834CC9",
"|  c #8353C2",
" . c #8B53C4",
".. c #845CC2",
"X. c #8A5CC3",
"o. c #8654C8",
"O. c #8758C9",
"+. c #8D5BCA",
"@. c #9054C4",
"#. c #9157C9",
"$. c #935BC9",
"%. c #8662C2",
"&. c #8A64C5",
"*. c #8D69C5",
"=. c #8D64C9",
"-. c #8F6BC9",
";. c #9362C3",
":. c #946CC4",
">. c #9265CC",
",. c #9964CF",
"<. c #936BCC",
"1. c #9A6AC8",
"2. c #8F75C0",
"3. c #9373C2",
"4. c #9975C5",
"5. c #957BC2",
"6. c #9B7CC4",
"7. c #9671CB",
"8. c #9A73CD",
"9. c #9C79CC",
"0. c #966BD1",
"q. c #9B6DD3",
"w. c #9D73D4",
"e. c #9E7AD1",
"r. c #9E72D8",
"t. c #A26FD4",
"y. c #A274D5",
"u. c #A27AD6",
"i. c #A97AD4",
"p. c #A375DA",
"a. c #A57ADA",
"s. c #AA7DDB",
"d. c #9280AD",
"f. c #9381BD",
"g. c #9B8BBD",
"h. c #9D90B2",
"j. c #A38ABE",
"k. c #A397BA",
"l. c #A9A1B8",
"z. c #9682C1",
"x. c #9B85C4",
"c. c #9C8BC2",
"v. c #9F8AC8",
"b. c #A68AC5",
"n. c #A28CC5",
"m. c #A393C4",
"M. c #AA95C4",
"N. c #A69AC4",
"B. c #AC9AC6",
"V. c #A594C8",
"C. c #AB95C9",
"Z. c #AA9ACA",
"A. c #AB82DD",
"S. c #AD88DE",
"D. c #B082DE",
"F. c #B58BDD",
"G. c #B69ED0",
"H. c #ADA1CB",
"J. c #B1A4C7",
"K. c #B7AFC5",
"L. c #B2A5CD",
"P. c #B5AACD",
"I. c #BAAECC",
"U. c #B8B1C4",
"Y. c #BCB3CD",
"T. c #B9A2D4",
"R. c #B6AAD1",
"E. c #BBABD2",
"W. c #BEB3D2",
"Q. c #AE83E0",
"!. c #B186E1",
"~. c #B48BE3",
"^. c #B98DE4",
"/. c #B691E5",
"(. c #BB93E4",
"). c #BC95E7",
"_. c #C1B7CE",
"`. c #C2BCCC",
"'. c #C2B5D5",
"]. c #C3BAD5",
"[. c #C6BAD9",
"{. c #C097E7",
"}. c #C29BE6",
"|. c #C39DE9",
" X c #C7C0D3",
".X c #CBC6D5",
"XX c #CBC5D8",
"oX c #CCC5D9",
"OX c #CFC9DA",
"+X c #D2CADB",
"@X c #D2CDDC",
"#X c #D5D2DD",
"$X c #D9D5DF",
"%X c #DAD6E1",
"&X c #DDDAE2",
"*X c #E1DEE5",
"=X c #E4DFE8",
"-X c #E3E2E6",
";X c #E7E6E8",
":X c #E8E7E9",
">X c #E9E9EA",
",X c #EAE9EA",
"<X c #EAEAEB",
"1X c #EBEBEB",
"2X c #EBEBEC",
"3X c #ECECEC",
"4X c #EDEDEC",
"5X c #EFF0EE",
"6X c #F0F1EE",
"7X c #F1F2EF",
"8X c #F2F3F0",
"9X c #F3F4F0",
/* pixels */
"3X3X3X3X3X3X3X3X3X3X3X3X3X3X3X3X3X3X3X3X3X3X3X3X3X3X3X3X3X3X3X3X3X3X3X3X3X3X3X3X3X3X3X3X3X3X3X3X3X3X3X3X3X3X3X3X3X3X3X3X3X3X3X3X",
"3X3X3X3X3X3X3X3X3X3X3X3X3X3X3X3X3X3X3X3X3X3X3X3X3X3X3X3X3X3X3X3X3X3X3X3X3X3X3X3X3X3X3X3X3X3X3X3X3X3X3X3X3X3X3X3X3X3X3X3X3X3X3X3X",
"3X3X3X3X3X3X3X3X3X3X3X3X3X3X3X3X3X3X3X3X3X3X3X3X3X3X3X3X3X3X3X3X3X3X3X3X3X3X3X3X3X3X3X3X3X3X3X3X3X3X3X3X3X3X3X3X3X3X3X3X3X3X3X3X",
"3X3X3X3X3X3X3X3X3X3X3X3X3X3X3X3X3X3X3X3X3X3X3X3X3X3X3X3X3X3X3X3X3X3X3X3X3X3X3X3X3X3X3X3X3X3X3X3X3X3X3X3X3X3X3X3X3X3X3X3X3X3X3X3X",
"3X3X3X3X3X3X3X3X3X3X3X3X3X3X3X3X3X3X3X3X3X3X3X3X3X3X3X3X3X3X3X3X3X3X3X3X3X3X3X3X3X3X3X3X3X3X3X3X3X3X3X3X3X3X3X3X3X3X3X3X3X3X3X3X",
"3X3X3X3X3X3X3X3X3X3X3X3X3X3X3X3X3X3X3X3X3X3X3X3X3X3X3X3X3X3X3X3X3X3X3X3X3X3X3X3X3X3X3X3X3X3X3X3X3X3X3X3X3X3X3X3X3X3X3X3X3X3X3X3X",
"3X3X3X3X3X3X3X3X3X3X3X3X3X3X3X3X3X3X3X3X3X3X3X3X3X3X3X3X3X3X3X3X3X3X3X3X3X3X3X3X3X3X3X3X3X3X3X3X3X3X3X3X3X3X3X3X3X3X3X3X3X3X3X3X",
"3X3X3X3X3X3X3X3X3X3X3X3X3X3X3X3X3X3X3X3X3X3X3X3X3X3X3X3X3X3X3X3X3X3X3X3X3X3X3X3X3X3X3X3X3X3X3X3X3X3X3X3X3X3X3X3X3X3X3X3X3X3X3X3X",
"3X3X3X3X3X3X3X3X3X3X3X3X3X3X3X3X3X3X3X3X3X3X3X3X3X3X3X3X3X3X3X3X3X3X3X3X3X3X3X3X3X3X3X3X3X3X3X3X3X3X3X3X3X3X3X3X3X3X3X3X3X3X3X3X",
"3X3X3X3X3X3X3X3X3X3X3X3X3X3X3X3X3X3X3X3X3X3X3X3X3X3X3X3X3X3X3X3X3X3X3X3X3X3X3X3X3X3X3X3X3X3X3X3X3X3X3X3X3X3X3X3X3X3X3X3X3X3X3X3X",
"3X3X3X3X3X3X3X3X3X3X3X3X3X3X3X3X3X3X3X3X3X3X3X3X3X3X3X3X3X3X3X3X3X3X3X3X3X3X3X3X3X3X3X3X3X3X3X3X3X3X3X3X3X3X3X3X3X3X3X3X3X3X3X3X",
"3X3X3X3X3X3X3X3X3X3X3X3X3X3X3X3X3X3X3X3X3X3X3X3X3X3X3X3X3X3X3X3X3X3X3X3X3X3X3X3X3X3X3X3X3X3X3X3X3X3X3X3X3X3X3X3X3X3X3X3X3X3X3X3X",
"3X3X3X3X3X3X3X3X3X3X3X3X3X3X3X3X3X3X3X3X3X3X3X3X3X3X3X3X3X3X3X3X3X3X3X3X3X3X3X3X3X3X3X3X3X3X3X3X3X3X3X3X3X3X3X3X3X3X3X3X3X3X3X3X",
"3X3X3X3X3X3X3X3X3X3X3X3X3X3X3X3X3X3X3X3X3X3X3X3X3X3X3X3X3X3X3X3X3X3X3X3X3X3X3X3X3X3X3X3X3X3X3X3X3X3X3X3X3X3X3X3X3X3X3X3X3X3X3X3X",
"3X3X3X3X3X3X3X3X3X3X3X3X3X3X3X3X3X3X3X3X3X3X3X3X3X3X3X3X3X3X3X3X3X3X3X3X3X3X3X3X3X3X3X3X3X3X3X3X3X3X3X3X3X3X3X3X3X3X3X3X3X3X3X3X",
"3X3X3X3X3X3X3X3X3X3X3X3X3X3X3X3X3X3X3X3X3X3X1X1X1X1X<X2X3X3X3X3X3X3X3X3X3X3X3X3X3X3X3X3X3X3X3X3X3X3X3X3X3X3X3X3X3X3X3X3X3X3X3X3X",
"3X3X3X3X3X3X3X3X3X3X3X3X3X3X2X2X3X<X<X<X<X<X3X3X4X4X<X<X<X<X<X3X3X3X3X3X3X<X3X<X3X3X3X3X3X3X3X1X3X3X3X3X3X3X3X3X3X3X3X3X3X3X3X3X",
"3X3X3X3X3X3X3X3X3X3X3X3X3X3X2X2X<X3X9X9X8X5X3X2X<X1X6X6X6X9X6X1X<X<X3X3X<X<X<X<X<X<X<X<X3X3X3X4X3X3X3X3X3X3X3X3X3X3X3X3X3X3X3X3X",
"3X3X3X3X3X3X3X3X3X3X2X2X<X<X3X9X6X;X$X].R.V.c.z.' ' V.Z.Z. X-X6X6X3X<X3X5X6X5X6X6X6X4X<X<X<X<X<X3X3X3X3X3X3X3X3X3X3X3X3X3X3X3X3X",
"3X3X3X3X3X3X3X3X3X3X<X2X5X9X;X.XZ.3.M l j j 5 1 3 < m m j f Q N.@X3X6X<X;X&X&X&X&X*X<X3X6X9X7X4X<X<X3X3X3X3X3X1X3X3X3X3X3X3X3X3X",
"3X3X3X3X3X3X3X3X2X2X2X9X&XP.) l z | | | | m n n n x ! M n g f n g n.Z.5./ ! M L L ^ ) v.H.].%X4X6X6X1X<X1X4X1X4X3X3X3X3X3X3X3X3X",
"3X3X3X3X3X3X3X<X3X9X-XR.L k ..&.&.L M c c p t p t w t t x x M L ~ d g L =.=.&.....| A z j j n _ P.&X6X6X4X1X4X4X3X3X3X3X3X3X3X3X",
"3X3X3X3X3X3X<X5X3X].! k -.8.<.:...n p p p w 6 O O 6 6 q q w w M m r n / 9.7.:.&.L L L | M m h f < g N.@X<X4X<X1X3X3X3X3X3X3X3X3X",
"3X3X3X3X3X<X6X-Xv.1 &.e.9.8.:.~ H w o . $ 9 N T T i 0 0 9 6 % w p M &.&.3.6.L P c c v x l g c m m l m m c.*X7X<X3X3X3X3X3X3X3X3X",
"3X3X3X2X2X3X#X! 5 7.n.0.:.:.E ;   9 h.U.#X&X<X*XV.m M b E I i 8 t c n m *.6.a   X o ; 8 y y e t t M %.M 3 E @X8X<X1X3X3X3X3X3X3X",
"3X3X3X2X8XOXl z 7.8.*.&.W $ X U `.-X3X6X5X9X-Xx.j m m n m c E I 8 t n m %.<.6.l.k.h.d.i # o $ 9 w w n c l : p XX6X3X<X2X3X3X3X3X",
"3X3X2X6X@Xz m *.*.P P u . U .X1X7X3X3X<X5X-Xz.5 m l d d g ;   R d.w x M >.:.4.-X7X6X<X-X@Xl.d.# O e e t n ! M d .X6X2X<X3X3X3X3X",
"3X<X5X&Xm m %...c c ; 7 U.1X5X4X4X3X<X3X2Xv.< M l s d u @ Y `.<X&Xa n %.<.8. .[.5X<X5X6X6X6X6X@Xh.+ 6 e q n *.m H %X9X2X3X3X3X3X",
"2X3X<X5.k S m n g @ I $X7X5X1X4X3X4X4X6X'.r M n d d y e K.<X6X4X4Xg.f n m X.| E.5X<X4X<X<X4X1X6X<X XN 6 8 p m v & n.<X6X<X3X3X3X",
"3X6XR.5 M n g g @ d.-X5X:X5X1X4X1X<X6X*X) s M d d d a .X6X3X<X<X6XN.> m X.=.o.G.6X1X3X4X<X<X5X<X<X6X$XT + e d M L h [.6X2X2X3X3X",
"6X&XM m n d g - ` :X5X:X1X1X4X1X1X1X6XY.1 M m n x t .X6X3X1X3X4X4Xg.f ..+.=. .G.5X<X5X3X3X2X5X<X<X<X6X&XT + v m *.X.Z.<X5X<X3X3X",
"6XL.j m g d ; B &X7X1X4X4X4X1X4X1X6X:Xg.1 L l c = J.5X4X3X4X<X6X&Xb =.<.=.$. .E.6X<X<X1X<X5X2X3X1X1X<X9X.Xy e n l L 4.%X6X<X3X3X",
"-X^ n l g r w `.9X;X3X3X3X3X3X3X3X6X&X) l %.S d n %X6X<X2X3X<X8XN.f =.<.=.>.{ oX6X<X3X3X3X3X3X3X3X3X<X3X2Xg.* b m *.%.oX5X3X3X3X",
"oX1 M g r > f.<X5X2X3X3X3X3X3X3X2X5X#XV l M %.s ) -X3X<X2X<X6X&Xc m <.w.0.,.;.*X6X<X3X3X3X3X3X3X3X3X3X3X5XK.: ! %.<. .[.5X3X<X3X",
"L.1 M g r r Y.9X<X2X3X3X3X3X3X3X<X6X#XV n %.%.j ) -X5X2X2X3X2Xz.j =.u.r.q.#.b.6X3X3X3X3X3X3X3X3X3X3X1X3X3XJ.= L &.e.| E.3X3X<X3X",
"c.s M n f p #X9X1X2X3X3X3X3X3X3X2X8X%XV S M M S r OX8X2X6X:Xn.S &.u.A.w.t.F +X6X<X3X3X3X3X3X3X3X3X3X<X9X-X_ : L J =.{ [.6X3X3X3X",
"f.d S m s b $X9X<X5X<X2X3X3X3X3X2X5X-Xz.f %...&.< f.<X6X&Xz.A 8.8.y.p.t.#.b.<X<X3X3X3X3X3X2X3X3X3X<X5X5XI.> m ..=.X.{ +X6X3X3X3X",
"f.l M M g g .X7X;X2X5X2X3X3X3X3X2X2X5XP.j %.X.%.&., P.$X_ 2 w.A.s.p.p.t.K #X6X<X3X3X3X3X3X3X3X2X3X6X5XW.g &.&.&.=. .e.*X6X<X3X3X",
"m.d M %.m s N.5X5X<X<X<X2X3X3X3X<X<X9X#XL m &...=...c g | A./.).D.s.y.F I.5X<X<X3X3X<X3X<X<X3X6X6X<XP.= ..<.<.&.<.] T.<X4X4X3X3X",
"I.s %.S ..n d W.5X5X5X1X1X2X2X2X2X2X3X5XL.m &.%.L L ..<.!./.~.D.s.s.@.M.<X4X1X<X<X3X3X3X6X6X3X-XoXc.< ..-.0.>.>.$.;.$X6X<X3X3X3X",
"#Xd M S M M S d H.&X<X6X6X6X6X5X3X9X5X9X%X2.m M L =.u.~.~.~.~.^.s.$.j.1X8X3X8X8X6X5X5X5X<X%XP.' A [ &.u.u.p.t.q.] '.6X3X3X3X3X3X",
"5Xc.l V M =.&.S , V Z.].+X%X&X%X%X@XW.R.v.%.%.<.y.A.Q.Q.!.).{.i.1.G M. X.X%X%X#X#XoXW.H.x.M 2 } w.9.w.s.a.q.t.] C.<X3X<X3X3X3X3X",
"5X&XV M *.S %.=.&.S 2 5 m M &.%.V S Z C A 0.r.Q.s.s.A.(.|.}.i.~ ! <.[ 4 A S %.S S A Z Z o.0.S.~.S.a.p.p.p.t.] b.=X3X1X3X3X3X3X3X",
"1X6XoXn S -.=.M =.=.-.=...O.O.O.O.0.0.r.a.p.a.a.s.^.}.|.F.7.P ~ 0.0.w.w.r.q.0.q.w.e.A./././.^.^.~.A.s.p.,.{ M.=X5X<X3X3X3X3X3X3X",
"2X2X7X.XV S &.&.&.=.=.-.<.<.<.0.r.q.y.p.r.p.p.s.F.(.s.1.~ / :.w.q.r.p.p.p.a.s.Q.Q.Q.A.Q.!.~.~.^.~.s.t.@.( _.<X5X3X3X3X3X3X3X3X3X",
"2X2X2X5X@Xz.l S &.7.0.<.0.>.<.0.0.r.y.y.a.a.s.a.0.{ G ~ G X.q.w.u.y.y.p.p.a.a.s.Q.!.(.).|.|.{.~.t.@.P C.#X5X1X<X3X3X3X3X3X3X3X3X",
"2X5X2X2X5X-XR.2.z D X.=.<.<.8.w.w.u.w.q.,.+.} ] ( m..X&X'.6.P { +.>.q.y.a.s.A.F./.).|.(.F.i.$.F ( M.+X1X8X3X<X3X3X3X3X3X3X3X3X3X",
"2X2X2X2X2X7X7X&X].V.3.P J | [ [ [ J J X.( 6.Z.].%X3X6X8X3X=X+XE.b.:.P D ] ] {  .o.| K K P ` M._.$X1X9X6X<X1X1X3X3X3X3X3X3X3X3X3X",
"2X2X<X2X3X1X3X6X6X<X&XOX].W.E.P.E.'.'.OX$X*X<X6X9X5X<X<X3X5X9X3X-X%X+X'.P.J.B.M.B.J.I.].+X=X1X7X9X3X1X:X3X3X3X3X3X3X3X3X3X3X3X3X",
"2X5X<X5X3X3X1X1X1X5X7X6X7X6X3X3X3X6X5X5X6X6X5X3X<X<X1X1X1X1X1X3X6X6X6X5X4X1X1X1X:X3X6X6X6X7X5X3X1X1X3X3X3X3X3X3X3X3X3X3X3X3X3X3X",
"2X<X2X2X3X3X3X3X1X1X1X1X3X3X3X3X6X1X3X3X4X1X1X1X3X3X3X3X3X3X1X1X4X<X1X3X4X5X6X6X7X5X1X4X1X1X1X1X1X1X5X3X3X3X3X3X3X3X3X3X3X3X3X3X",
"5X<X5X2X3X3X3X3X2X3X2X2X3X1X3X3X<X1X1X3X<X1X4X4X3X3X3X3X3X3X3X3X4X4X4X1X1X<X1X1X1X1X1X1X4X1X3X3X5X1X5X3X3X3X3X3X3X3X3X3X3X3X3X3X",
"1X1X1X2X5X1X3X3X3X3X3X3X3X3X3X3X3X3X3X3X3X3X3X3X3X3X3X3X3X3X3X3X1X3X3X3X3X3X3X3X1X1X4X4X3X3X3X3X1X1X1X5X1X1X3X3X3X3X3X3X3X3X3X3X",
"5X2X1X5X2X1X3X3X3X3X3X3X3X3X3X3X3X3X3X3X3X3X3X3X3X3X3X3X3X3X3X3X4X1X3X3X3X3X3X3X1X4X4X1X3X3X3X3X5X1X4X1X3X3X3X3X3X3X3X3X3X3X3X3X",
"1X2X5X2X5X2X3X3X3X3X3X3X3X3X3X3X3X3X3X3X3X3X3X3X3X3X3X3X3X3X3X3X3X3X3X3X3X3X3X3X4X1X1X4X3X3X3X3X1X5X1X4X3X3X3X3X3X3X3X3X3X3X3X3X",
"2X2X1X1X1X2X3X3X3X3X3X3X3X3X3X3X3X3X3X3X3X3X3X3X3X3X3X3X3X3X3X3X3X3X3X3X3X3X3X3X1X4X1X4X3X3X3X3X1X1X1X1X3X3X3X3X3X3X3X3X3X3X3X3X",
"3X3X3X3X3X3X3X3X3X3X3X3X3X3X3X3X3X3X3X3X3X3X3X3X3X3X3X3X3X3X3X3X3X3X3X3X3X3X3X3X3X3X3X3X3X3X3X3X3X3X3X3X3X3X3X3X3X3X3X3X3X3X3X3X",
"3X3X3X3X3X3X3X3X3X3X3X3X3X3X3X3X3X3X3X3X3X3X3X3X3X3X3X3X3X3X3X3X3X3X3X3X3X3X3X3X3X3X3X3X3X3X3X3X3X3X3X3X3X3X3X3X3X3X3X3X3X3X3X3X",
"3X3X3X3X3X3X3X3X3X3X3X3X3X3X3X3X3X3X3X3X3X3X3X3X3X3X3X3X3X3X3X3X3X3X3X3X3X3X3X3X3X3X3X3X3X3X3X3X3X3X3X3X3X3X3X3X3X3X3X3X3X3X3X3X",
"3X3X3X3X3X3X3X3X3X3X3X3X3X3X3X3X3X3X3X3X3X3X3X3X3X3X3X3X3X3X3X3X3X3X3X3X3X3X3X3X3X3X3X3X3X3X3X3X3X3X3X3X3X3X3X3X3X3X3X3X3X3X3X3X",
"3X3X3X3X3X3X3X3X3X3X3X3X3X3X3X3X3X3X3X3X3X3X3X3X3X3X3X3X3X3X3X3X3X3X3X3X3X3X3X3X3X3X3X3X3X3X3X3X3X3X3X3X3X3X3X3X3X3X3X3X3X3X3X3X",
"3X3X3X3X3X3X3X3X3X3X3X3X3X3X3X3X3X3X3X3X3X3X3X3X3X3X3X3X3X3X3X3X3X3X3X3X3X3X3X3X3X3X3X3X3X3X3X3X3X3X3X3X3X3X3X3X3X3X3X3X3X3X3X3X",
"3X3X3X3X3X3X3X3X3X3X3X3X3X3X3X3X3X3X3X3X3X3X3X3X3X3X3X3X3X3X3X3X3X3X3X3X3X3X3X3X3X3X3X3X3X3X3X3X3X3X3X3X3X3X3X3X3X3X3X3X3X3X3X3X",
"3X3X3X3X3X3X3X3X3X3X3X3X3X3X3X3X3X3X3X3X3X3X3X3X3X3X3X3X3X3X3X3X3X3X3X3X3X3X3X3X3X3X3X3X3X3X3X3X3X3X3X3X3X3X3X3X3X3X3X3X3X3X3X3X"
};
