/* XPM */
static char *b973523a93a64692a5cf6ae1a5d82a34k4NVmua2Xq7kwBoo[] = {
/* columns rows colors chars-per-pixel */
"64 64 243 2 ",
"   c #050200",
".  c #0B0500",
"X  c #0D0A02",
"o  c #0E0D09",
"O  c #070802",
"+  c #120500",
"@  c #1A0500",
"#  c #130C03",
"$  c #1A0D03",
"%  c #130E09",
"&  c #190F0D",
"*  c #161105",
"=  c #1A1205",
"-  c #15120B",
";  c #1B140C",
":  c #1D190D",
">  c #1D1805",
",  c #161411",
"<  c #1B1611",
"1  c #1D1A13",
"2  c #1E1D19",
"3  c #171813",
"4  c #0F110C",
"5  c #230E02",
"6  c #221506",
"7  c #22160C",
"8  c #231B0D",
"9  c #2B1C0C",
"0  c #271704",
"q  c #231C14",
"w  c #2A1E13",
"e  c #241E19",
"r  c #251A14",
"t  c #311E14",
"y  c #341D0F",
"u  c #1F2219",
"i  c #2B210E",
"p  c #37220A",
"a  c #252115",
"s  c #2B2315",
"d  c #25221B",
"f  c #2B241B",
"g  c #2E291D",
"h  c #2A2918",
"j  c #322515",
"k  c #32251B",
"l  c #322A1C",
"z  c #3A2C1C",
"x  c #352816",
"c  c #36311E",
"v  c #38311E",
"b  c #262320",
"n  c #2C2621",
"m  c #262922",
"M  c #2D2A22",
"N  c #2B2A28",
"B  c #302721",
"V  c #332C23",
"C  c #392D23",
"Z  c #342E29",
"A  c #342B28",
"S  c #353124",
"D  c #3B3324",
"F  c #35322A",
"G  c #3B342B",
"H  c #3D392B",
"J  c #3C3927",
"K  c #3C3731",
"L  c #3C3A32",
"P  c #412F1B",
"I  c #47331C",
"U  c #5D3C1B",
"Y  c #452E22",
"T  c #443425",
"R  c #423926",
"E  c #443A2A",
"W  c #4B3C2C",
"Q  c #45362A",
"!  c #523C28",
"~  c #433C34",
"^  c #473D32",
"/  c #4A422C",
"(  c #59482A",
")  c #4C4233",
"_  c #484337",
"`  c #544434",
"'  c #534A34",
"]  c #5D4C32",
"[  c #554B3A",
"{  c #5B4D3B",
"}  c #514539",
"|  c #5A543B",
" . c #614A28",
".. c #624932",
"X. c #6D5431",
"o. c #64533B",
"O. c #695A3F",
"+. c #755B39",
"@. c #6B532F",
"#. c #78603C",
"$. c #594B42",
"%. c #585349",
"&. c #504F4B",
"*. c #645546",
"=. c #645A45",
"-. c #6B5B46",
";. c #655A4C",
":. c #6B5C4C",
">. c #66574A",
",. c #735B48",
"<. c #6A594F",
"1. c #696445",
"2. c #6B654D",
"3. c #6A664A",
"4. c #72654B",
"5. c #79634B",
"6. c #7E6D4D",
"7. c #73694A",
"8. c #6D6451",
"9. c #726353",
"0. c #756A52",
"q. c #7E6A52",
"w. c #756A5B",
"e. c #7A6E5B",
"r. c #7A6753",
"t. c #7C745D",
"y. c #7E7559",
"u. c #786D64",
"i. c #7D7664",
"p. c #797571",
"a. c #83654C",
"s. c #856C4B",
"d. c #8C6A4B",
"f. c #836342",
"g. c #846B53",
"h. c #8B6E52",
"j. c #836E59",
"k. c #896F58",
"l. c #8C7351",
"z. c #83745C",
"x. c #8B745C",
"c. c #8C7B5D",
"v. c #837659",
"b. c #927354",
"n. c #997656",
"m. c #92765B",
"M. c #967B5D",
"N. c #9B7A5C",
"B. c #8E6F4E",
"V. c #A07D5E",
"C. c #847462",
"Z. c #857B63",
"A. c #8C7A64",
"S. c #867A69",
"D. c #8C7C6B",
"F. c #877564",
"G. c #947C64",
"H. c #9B7F62",
"J. c #917E6A",
"K. c #847C79",
"L. c #856E66",
"P. c #A07F60",
"I. c #93845F",
"U. c #98805D",
"Y. c #8C826C",
"T. c #8A846B",
"R. c #948564",
"E. c #9C8365",
"W. c #968863",
"Q. c #9A8966",
"!. c #93836B",
"~. c #9C846B",
"^. c #9D8A6B",
"/. c #93886A",
"(. c #8C8473",
"). c #8C857B",
"_. c #958472",
"`. c #9D8A73",
"'. c #9C8B7A",
"]. c #978775",
"[. c #9A9076",
"{. c #A38364",
"}. c #A1866A",
"|. c #A48C6D",
" X c #AC8C6C",
".X c #A88766",
"XX c #A38C74",
"oX c #A68E78",
"OX c #A69175",
"+X c #AD9375",
"@X c #A4927A",
"#X c #AC9579",
"$X c #AC9A7D",
"%X c #B19574",
"&X c #B19679",
"*X c #B39A7B",
"=X c #B59B78",
"-X c #AB926D",
";X c #B5A07D",
":X c #8B8282",
">X c #988B81",
",X c #9C9485",
"<X c #979691",
"1X c #A28D81",
"2X c #AB9B82",
"3X c #A69B88",
"4X c #B49C81",
"5X c #B99E83",
"6X c #ACA48E",
"7X c #B7A388",
"8X c #B7A996",
"9X c #B8B49A",
"0X c #BDB7A4",
"qX c #C4AC8C",
"wX c #C8B699",
"eX c #C2AE93",
"rX c #CCBDA5",
"tX c #CCBEAA",
"yX c #C4BAA5",
"uX c #D7BCA0",
"iX c #C4AEA0",
"pX c #CBC2A9",
"aX c #D3C4AC",
"sX c #D7C9AF",
"dX c #DAC4A7",
"fX c #CBC3B3",
"gX c #D5CAB3",
"hX c #D9CBB1",
"jX c #DACCB2",
"kX c #DCCEB4",
"lX c #DFCEB4",
"zX c #DBCCB3",
"xX c #D7CAB4",
"cX c #DED0B6",
"vX c #DED0B6",
"bX c #E2CAAB",
"nX c #E2CBB2",
"mX c #E2D3BB",
"MX c #E7D9BF",
"NX c #F3DDB8",
"BX c #E5D8C4",
"VX c #FFF7D6",
"CX c #F2E4CA",
/* pixels */
"jXjXkXkXkXcXcXcXcXkXjXhXhXjXkXlXbXP.G.b.b.H.G.H.}.k.5.r.x.x.j.q.u.w.w.S.S.w.u.Y.S.t.t._.].T.T.W.W.I.I.I.W.W.E.Q.Q.|.OX+X+X*X4X7X",
"jXkXkXkXcXcXcXcXkXkXjXhXhXjXlXlXuX.XP.m.b.XXH.G.J.k.5.j.A.A.x.L.9.>.:.w.w.9.w.S.!.S.Z.Z.Z.y.Z./.W.W.W.I.W.W.Q.Q.^.|.OX+X#X*X5X5X",
"jXjXjXkXkXkXcXcXkXkXjXhXhXjXjXkXuXXXP.b.k.+X}.}.G.j.g.j.F.j.r.r.} E Q } [ ` { :.t.S.T.z.v.Z.T.T.W.W.I.W.W.Q.^.^.^.|.+X+X#X%X*X5X",
"hXjXjXjXkXkXkXkXkXkXjXhXhXjXlXkXdXP.G.G.G.}.H.1XJ.g.,.-.>.o.` ! C j w k l l v E ) *.4.1.e.T./.c.R.I.W.W.W.W.^.^.|.OX+X+X#X%X*X5X",
"hXhXjXjXjXkXkXkXkXkXjXhXhXjXlXlXnXG.G.oX}.m.5.x.5.*.! ! T z j x D k w w j j x l h v / / =.Z.T.y.R.R.R.A.R.^.^.|.XXOX#X#X+X+X%X4X",
"hXhXhXhXjXjXjXkXkXkXjXhXhXjXjXlXnXG.G.#XH.,.I ! ! P x x j 9 9 j D l r w f j h s / / v v / 3.T./.T.R.R.R.R.^.^.^.OXoX%X%X+X+X&X&X",
"sXhXhXhXjXjXjXkXkXkXjXhXhXjXkXkXsX}.G.r.o.] x p j 9 9 x x j j x k f 7 1 s h s 6 v v v v J ' 3.T.R.R.R.R.!.^.`.|.OX+X#X#X+X#X&X&X",
"sXsXsXhXhXjXjXjXkXkXjXhXhXhXkXkXsXoXj.I y W T 9 0 6 t C T C l l f r 7 q s l s 8 X > c R c h / O.Y.G.Y.!.!.`.`.XX+X#X*X#X X X+X+X",
"cXcXjXjXjXvXcXmXkXkXmXMXmXhXsXlXaX'.-.P 0 z T j 8 s s > # q S ~ l q # - f D H S g a i h J c c J >.D.J.D.J.`.J.#XOX@X+X+X+X+X%X*X",
"cXjXjXhXjXcXcXmXmXkXaXpXaXaXmXBXBX'.$.z 9 x z 8 9 k l r ; < 7 : ; - ; - : a w a : 8 c R J c c J W r.D.D.].J.G.oXOX@X#X+XOX+X*X*X",
"jXjXjXjXjXjXcXmXlXjXhXsXaXsXsXsXxXL.Q x j k x 7 w h h q : : o O % < q : # O * u X : g J c h h J z >.L.D.oX'.J.1XXXOX#X&X+X+X%X=X",
"jXjXjXjXjXvXkXcXhXjXjXsXlXmXvXaX3X{ j x j j k f f e 1 - - r 2 , : < 3 # O O - d > * > u > > h J x ` *.9.J.XXH.1XXX#X#X#X+X+X%X=X",
"hXhXjXjXjXkXkXkXhXhXpXpXsXmXmXsX8.V w l s q s h r q 3 - 2 m b 2 % - , , - - > : 3 X O * > > > h k Y t Y 9.J.J.H.XXOX#X&X&X+X%X%X",
"sXsXjXjXkXkXjXjXsXlXvXhXsXpX$Xq.E s j V 8 = q q : q u u b N 2 o o , u Z K F u - > X 4 : u * 4 X C t 5 r *.J.J.1XXX@X#X&X&X+X%X%X",
"sXsXhXjXjXjXjXhXpXlXsXwX8X[.| 0 x f l g ; = r 3 : 2 2 3 3 3 o   , 3 b F L F u - u u : h : 4 4 4 t k 7 t *.D.].oX`.OX&X=X=X+X%X%X",
"aXsXhXvXlXkXhXhXmXaX3Xv.0.7.] i f r f r - r n 1 1 2 - O     o o - , , , - - 4 - S m c u > O > h & t r t $.u.D.'.`.OX$X*X&X-X%X%X",
"rXhXmXhXsXmXtXtXBXyX,XZ.8.| D i d u 2 2 , o . o 4 o   O 4 3 , o , % O . X X O . 1 1 1 d V F n 1 & & & b $.u.K.J.J.XX#X+X-X|.%X=X",
"rXaXhXhXlXtX8X'.pX(.) s V R v a m 2 3 2 , o o o       o 4 4 o o O     . o : 1 3 F N f d m d d 1 N b e N ~ $.>.:.S.~.XX*X*X%X%X%X",
"sXaXaXsXBXcX8XD.w.[ s 8 s s 8 X e 3 , < , o o & & o o       4 2 - X O X X # % # q 3 < - : 3 e d b , & b Z G ^ >.F.J.XXOX#X%X%X-X",
"lXaXrXtXkXxX8X>Xl R / R s > * * - % % 3 < & o , , o . . o 4 2 e 1 - X .   O       O X - , ; 1 m , . o b B k Q >.F.J.~.`.|. X=X=X",
"aXtXrXtXyX3X].C.v J J s * O 1 S 3 & < 2 2 & o o o o o 2 Z Z b , - % X . O   . . O X : d d < - < e & & N b 7 w W 8.x.`.@XOXOX#X7X",
"aXtXaXyX3XL.%.) v s > X X * a h b 2 2 e < o o . ;.~ b b Z K A d d e 2 - .     O X   X 1 d - - 3 2 , r B b 7 r C Q *.J.$X4X$X#X;X",
"tX8X3X'.e.[ v v s a > > > : 3 * n r & & & o < n p.&.A < 2 b A A L K F h : X O X <     X - - - n o & 2 b B b t k 9 z o.v.XX6X2X#X",
"8X'.w.| E x x D c S F a O O : Z r % . . o r A } 7 < < e n n e < K K F N d d d d &.d     X . - d & e b b k k r $ $ $ i ` v.@X2X$X",
"3XBX<.l > h s a c M u O X h u * r + . < V G V B G Q A e e k B g N f e 2 d N K _ F 2     X 3 - O < & - r n B k h = 6 6 j [ x._.T.",
"6X3Xi : * i i c h g a X X u h u r - ; B ~ K A B B C A B B B B f : 3 1 d d n M M M u - X - - - : % < < r r e w r $ > > 9 R -.e.e.",
"gX8.. h i X * a : h a O O 3 m m r 7 f Q ~ C f t w B C C A C B e 1 e d d N N Z Z Z Z g 2 * X - 2 < < e d r 1 > ; = > 7 8 s / ' [ ",
"tXD   R l X * * 1 1 - O O u u u < r g C C f r 7 r f C A C C C f F V m d h Z L ~ L L K M - O . X b e r f r q $ + # > s s h l D J ",
",X#   h 8 * a - h - O   o u u 3 r w f k k 7 7 r 7 k B k k C C k M m q 3 3 d n F L L G M 1 % .   B e r r r q #   X : S H D c l S ",
",X: : = * ; M h m - O O 4 u u u k f k k t r w k 7 w t w k B k f q q d q u 1 1 3 F F N M d 1 % X e r & & q < - . * : m L _ S g g ",
",Xs h = a : h g h - O O u m m m B t w k B w w k @ 7 t k k k t 7 h d d 2 3 : - - M M N S n e < % r e f e : ; : a * * d H L S g S ",
"p.# w * S h q M d 3 X 4 u u F L h w w k C k t e . 7 f n B B r - V d 1 # . X * - n F K F n 1 < & r A G A 1 : g ~ - * : c F g h m ",
"p.  A B n < r h 1 a a a u h c l 8 9 9 8 8 8 q w * a F L L &.p.<X%.L q # . . # 1 n h A E ~ F g g < A e = e f e B K f < q e r q h ",
"K.. N n e < r A s h h s i l c c j j 9 9 9 w a s : u m h N N &.%.F F n 7 # # * : f B V G H H B f < f r < e e & e ~ G n e n A A n ",
":X. n b r < e V h B g h h c c x x x s 9 8 8 r f 3 - - 4 4 4 4 , . q h : . + # # 8 g V g g G F f e f e B C < % e K K A e f G V e ",
":X  b e r < < g x V h i h l x h x j 9 6 = > > 8 # * 4 4 O O O X   q f $ # : > # # g V q r C D f A A n Z Z ; + B A K C e e G A 1 ",
"K.  b r q * # : f h a 8 a s i > s s 8 6 $ = = - # : f h 1 1 2 n r B f = 8 C V ; # g V r e D G g A n e f f     n n ~ H d e G G e ",
"K.  r r : # # = q q > * > a i * s 9 8 7 = = = $ # : f d r < e g D h - $ d G B = ; k G C B D G S A F n e r .   f r n B e e A n 1 ",
").  1 - = # # = : = * # = 8 8 $ 7 7 6 7 ; $ # + + # - ; - = & ; f =   # h B q   > f C H D A V S f H A d r % . r - < r e e e r e ",
">X  8 $ * # * : = > # # > 8 > # # $ $ 7 $ # + . # + # $ ; 7 ; $ < .   q D C ;   - q A H V a a g - A A r < #   # 7 < r A A e f n ",
"fXE O 8 > . X 8 s # . > w > ; 8 + + # & 7 7 + + + + r r . + 7 = ;   r   # > : . # ; w l V B f q f f n r ; # # % . < A K f < r A ",
"pXi.> O g h * > X X X X # # = : # # + $ ; ; $ + . & @ + . + + + r + w # + # # # # - r f g f a w e e q < % . . # % < f n < % < n ",
"0XgX3.  * *   > c 8 .   * h r   # % + + $ = + + k 5 o @ t 5 + @   -   # + X # 7 # - q a a f r q r 1 < & +     . % = < r < # ; e ",
"3.0X9Xi.y.=.8 .   X > * .   # > ; $ % + + # @ @ + $.$.5 5 + @ Y + V   * - # # : = = : 8 q w a w e e r % # + . X % + + < < < ; r ",
"| 3./.6XpXgX6X=._ > O X s s : # & & & + + + + @ + >X>X5 @ ! Y 5 <.u.  r > # . # % $ - > 7 q 7 q r < = # # + X + + . # r n f 1 7 ",
"y.| | y.y.3XfX9XCX(.u   X q > # & & & + . . + + @ <.<.Q Y Y y y <Xw.#   . . . # # # = - > - ; ; < % +     + # . % % ; g A A e e ",
"1.3.7.3.3.| 3.T.8X0X,XH     < n & & & % + . + + + t L.4X<.5 Y 1Xi.g #       + # # # = ; ; ; $ % ; # . . + % % % e < r N A B f f ",
"y.[.O.' y.3.| i.) (.6X].3X0X(.t % & & % + .   + 5 t <.1X8XiX8X'.$.  r   .       . # # ; ; - = # < % . . # ; < : B f e g A e e n ",
"y.W.;XI.U ( 6.I.| #.7.0.[.pX6X0.9 7 q + # $ . $ $ 6 Q ^ W 9.u.} B :           X X . . . . O # - = = & r n V g r F l f a f g g e ",
"I.#.W.NXbXs.(  .I.I.7.( O.y.v.7.9 > 7 + $ =   6 . $ t x C ) ^ j N 3 .   O         O . O X # - ; % # # q g B l f V g r a f g f s ",
"@.s.6.#.;XVXwXi #.( ( I.`.q.O.-.x $ 6 $ $ 6 . 7 6 x C ^ ;.>.) E : O     X X .       X - - , - - # # # : f l B g V g r a g g g w ",
"@.l.W.#.f.qXNXbXp O.I.7.O.q.v.3.T $ > $ $ 6 $ 6 $ 9 s W w.>.Q } f *   . - - O   . O # 3 1 1 - # # # + = r g C n B h r s f g f r ",
";X#. .B.U.W.;XwXVX( + I v.O.( v.[ $ = 7 # > # $ . = = D ;.} h ~ _ M - - - - . O - % - 1 e 1 % O # # . = w g g g B f a a g f w q ",
"@.B.Q.B. .@.l.l.E.dXeX] P z.6X`.*.+ = 7 + = $ $ = 7 w G _ C w k f 3 X - - % X - 1 : - < 1 : X O # . X $ q f f h B g f s f f r - ",
"-X#.@.B.U.U.U.l.6.qXsX7XXX7XeX2X;.. # 7 . ; > # $ # 8 w ; $ $ #     O X % # % 1 1 - O X - - # X # X # = r f a w S l f f f f > # ",
"+.@.f.B.f.B..XQ.7X+XOX4X@XA.E.6X;.  . 7 . 7 8 * w - l l # # a # * - 3 e 3 # O - - X     O - X O . + X ; a f r : D V f f f w ; # ",
"U f.l.b. X+X XoX%X|.}.~.XXXX~.F.8 - #   . + * ; - > q r r 8 > # X % : - < < 3 1 # O X # o O . X . # ; 7 q h g f A B f r s h :   ",
"f.{. X.X%X&X X#X}.}.~.~.XX@XA.-.8 - # .   X # * ; : q a a q - - - : 3 1 < - : 3 - X X % X .   O # $ = ; 7 f g a l V g w f f ;   ",
"n.%X X X X XV.P.M.}.~.E.XXXX5.P 8 : # X . O # # # - ; : : - # O - : < 3 - X X # % X O # X .   . . # = - < f f r f g g e f r $   ",
"V. XP.N.P.n.h.m.H.}.~.m.G.M...@ 8 : - X X . X X . O X # X O     X o % X O   O . X . O % - O O . . # ; - : s s q f f h g w : #   ",
".X XV.n.V.n.h.b.n.G.G.g.k.g.! + 8 : - o X O . . . O . .         O . X X .   . .     . - - X X * # $ > ; : d f q w f f h q $ .   ",
".X.Xn.n.V.b.a.b.m.h.a.a.a.,.I @ - < - % % X O . X O . O O O O .   O X X X X X X O   X - 3 - o - # - : : 8 f f w f f f f :     . ",
"n.n.d.d.V.n.d.G.b.a.a.k.a...p 5 # - - 4 - X O O o X O O     . O   . X X X O X X X X * 3 1 - # % # : 7 7 q f g w f s f a $     # ",
"d.d.f.B..XP.H. XP.h.a.m.h.! 5 @ # o 4 , - o o O X O           O   O . . O     O - - - q 1 - X # % 1 q r r g k e h e f w #     # "
};
