/* XPM */
static char *d2ff68007ccd449b9bb07abf7eb2c1c2swN0Ezx8HTnzy7B3[] = {
/* columns rows colors chars-per-pixel */
"64 64 230 2 ",
"   c #060200",
".  c #0A0501",
"X  c #0D0A03",
"o  c #0E0B09",
"O  c #0A0708",
"+  c #120401",
"@  c #120C04",
"#  c #1B0C03",
"$  c #110708",
"%  c #130E0A",
"&  c #1A0E0B",
"*  c #1A0701",
"=  c #141105",
"-  c #1B1304",
";  c #15110B",
":  c #1A130D",
">  c #1C1A0E",
",  c #161311",
"<  c #1C1611",
"1  c #1D1913",
"2  c #1E1C19",
"3  c #1D1719",
"4  c #1B0F11",
"5  c #220E05",
"6  c #221305",
"7  c #22150C",
"8  c #231A0D",
"9  c #2A1C0C",
"0  c #2A1608",
"q  c #311B0A",
"w  c #211512",
"e  c #221B15",
"r  c #2A1E13",
"t  c #251E19",
"y  c #2A1E1D",
"u  c #20171A",
"i  c #301F17",
"p  c #36250D",
"a  c #242115",
"s  c #2C2315",
"d  c #26221A",
"f  c #2A231C",
"g  c #2C2A1E",
"h  c #2D2B15",
"j  c #342615",
"k  c #302916",
"l  c #32261A",
"z  c #342B1C",
"x  c #3A2D1C",
"c  c #3C2B15",
"v  c #3D301F",
"b  c #231F20",
"n  c #2C2521",
"m  c #2D2A23",
"M  c #292625",
"N  c #322C24",
"B  c #3B2F22",
"V  c #332E2A",
"C  c #352A27",
"Z  c #343126",
"A  c #3C3323",
"S  c #35312A",
"D  c #3A342C",
"F  c #3D392D",
"G  c #3D3824",
"H  c #3B3631",
"J  c #3F3832",
"K  c #402F1F",
"L  c #42311E",
"P  c #433320",
"I  c #493925",
"U  c #443A2C",
"Y  c #4B3D2C",
"T  c #44372A",
"R  c #523B27",
"E  c #423A32",
"W  c #433E39",
"Q  c #4E422D",
"!  c #5D492C",
"~  c #57452C",
"^  c #4C4232",
"/  c #4B463C",
"(  c #534532",
")  c #524936",
"_  c #5A4936",
"`  c #534B3B",
"'  c #5B4D3B",
"]  c #584536",
"[  c #5D513D",
"{  c #654B36",
"}  c #65533C",
"|  c #6B563A",
" . c #735B3C",
".. c #76563D",
"X. c #7D643E",
"o. c #453F41",
"O. c #564740",
"+. c #524D45",
"@. c #59544B",
"#. c #53504B",
"$. c #624F41",
"%. c #645543",
"&. c #6B5B44",
"*. c #6D5D4A",
"=. c #655847",
"-. c #725C43",
";. c #7B5E44",
":. c #735F49",
">. c #6B624E",
",. c #756243",
"<. c #7B6244",
"1. c #74634D",
"2. c #7A644D",
"3. c #7C684D",
"4. c #6B6456",
"5. c #746553",
"6. c #7A6652",
"7. c #766952",
"8. c #7C6B54",
"9. c #746B5B",
"0. c #7D6D5A",
"q. c #7D715D",
"w. c #7F7157",
"e. c #7A7260",
"r. c #736F66",
"t. c #89723E",
"y. c #846A4D",
"u. c #846948",
"i. c #8F7947",
"p. c #8B7449",
"a. c #947C4D",
"s. c #846C53",
"d. c #8B6E52",
"f. c #876955",
"g. c #827255",
"h. c #83745B",
"j. c #8C745B",
"k. c #8A795D",
"l. c #897658",
"z. c #92765C",
"x. c #937C5C",
"c. c #9A7D5C",
"v. c #957955",
"b. c #837562",
"n. c #867965",
"m. c #8B7B64",
"M. c #837C6A",
"N. c #8C7D69",
"B. c #8A7766",
"V. c #927C63",
"C. c #987965",
"Z. c #9B8459",
"A. c #9C824F",
"S. c #A28B5A",
"D. c #8D826D",
"F. c #8F8166",
"G. c #948265",
"H. c #998466",
"J. c #9C8A65",
"K. c #94836A",
"L. c #9A856B",
"P. c #9D8A6C",
"I. c #8E8774",
"U. c #938673",
"Y. c #9B8B71",
"T. c #978A77",
"R. c #99937B",
"E. c #A3836D",
"W. c #A28C6E",
"Q. c #A48465",
"!. c #AA9368",
"~. c #B3986D",
"^. c #A58D71",
"/. c #AC8973",
"(. c #A99275",
"). c #A49378",
"_. c #B3967A",
"`. c #B69D77",
"'. c #BAA57A",
"]. c #C1AB7C",
"[. c #9B9187",
"{. c #AC9E8B",
"}. c #A39985",
"|. c #B09A83",
" X c #ADA18B",
".X c #B7A78A",
"XX c #ACA591",
"oX c #B1A591",
"OX c #B3A994",
"+X c #BCAD94",
"@X c #BAAC9A",
"#X c #BCB39D",
"$X c #BEB6A5",
"%X c #C4AD94",
"&X c #C0AF9D",
"*X c #C1B295",
"=X c #C3B49D",
"-X c #C4BA9D",
";X c #CCB696",
":X c #C4A98C",
">X c #C2B5A3",
",X c #C5BCA3",
"<X c #CBBDA4",
"1X c #C5BBAC",
"2X c #CCBDAA",
"3X c #C8BEB4",
"4X c #D7BFA3",
"5X c #D4C09F",
"6X c #CCC2A5",
"7X c #CCC2AB",
"8X c #C9C3AD",
"9X c #D2C3A7",
"0X c #D3C5AB",
"qX c #D6C9AE",
"wX c #D9C8AE",
"eX c #CBC4B2",
"rX c #CEC8B1",
"tX c #D3C5B2",
"yX c #D6CAB5",
"uX c #DACBB3",
"iX c #D5C9BB",
"pX c #DACDBA",
"aX c #DED1B9",
"sX c #E1D2BC",
"dX c #E6D4B4",
"fX c #E7D3AE",
"gX c #D8CDC2",
"hX c #E1D5C3",
"jX c #E8D9C6",
"kX c #FCE9C8",
/* pixels */
"6X2X9X9X0X0X0X0XwXqXqX0X0X0XwXwX:Xz.v.f.d.Q.E.^.V.3.-.:.6.6.6.h.5.5.5.6.6.0.h.h.w.w.w.l.k.k.l.w.F.D.F.M.N.K.K.K.K.K.L.L.L.P.W.^.",
"9X9X7X9X0X0X0X0XwXqX0X0X0X0XwXwX`.d.c.c.x.E.C.P.j.2.-.2.6.6.2.6.b.f.e.f.0.0.6.6.h.h.g.g.w.w.w.F.F.e.M.M.m.N.K.K.K.U.L.L.H.P.^.^.",
"9X9X0X9X0X0X0X0XuX0X0X0X0X0XqXwX_.d.c.c.z.E.V.V.j.8.2.6.6.:.} _ $.$.%.=.*.1.5.0.w.h.w.w.7.w.l.F.M.n.m.N.N.D.N.K.Y.K.K.G.H.P.^./.",
"9X7X0X0X0X0X0XqXqXqXqX0X0X0XqXwX%Xz.z.f.y.C.x.V.B.f.:.:.| ] P j j j x K T ( _ ' >.w.w.l.h.h.k.F.n.n.M.N.N.D.V.D.L.K.K.G.G.W.^.(.",
"7X9X0X0X0X0X0XqXwXqX0X0X0X0XuXwX;XC.j.f.j.^.V.j.3.:.} ( I P j 0 q 9 r j j j x c Q [ 7.k.F.n.k.F.h.n.n.N.N.K.G.m.K.K.K.G.L.P.^.(.",
"0X0X0X0XqXqXqXqXwXuX0X0XqX0XqXwX%Xj.z.B.V.^.d.:.] Y L j j c j 9 s r r r l l B x k Q [ 7.q.F.n.n.h.b.M.N.N.N.m.m.V.G.K.K.P.W./.(.",
"0X0X0XqX0XqXqXwXuX0XqX0X0XqXwXwX+XV.C.j.5.:._ Q p j q 6 9 l j 9 7 9 r r l z A A x x v ) >.w.n.q.e.b.M.N.N.N.N.B.m.m.K.P.^.^.^.^.",
"0X0XtXwXqXwXwXqXuXqX0X0X0X0X0XwX>XL.K.:.I P q j 9 9 8 - 7 s r - 8 r w 7 7 6 6 6 v k 9 h ) >.q.n.h.b.n.N.K.N.m.B.m.V.K.P.^.^.^.^.",
"0X0X0X9X0X0X0XwXqX0X0X9X<X6X0XuX>XN.] L I j 6 9 0 z Z s > a a = & & w N B w # + s g k s z Q >.M.b.M.B.e.b.D.K.m.m.G.K.Y.W.^.W.W.",
"0X0X9X7X0X0XqXqX<X9XwXsXuXwXwXpX2X0.L j j 9 9 r z s 8 > g S h = . 7 C B f w f T U A l s z A U ^ 9.h.M.n.m.N.K.N.m.G.L.P.W.^.W.W.",
"0X0X9X0X0X0XqXqX6X0XuX0X9X<X9X0XhX5.j l 9 9 l s s a : > f Z d ; + $ & 4 +   $ r A s 8 r N A x a ' 5.n.B.b.N.K.K.V.N.K.L.P.P.^.^.",
"0X0X9X9X0X0XqXqX0XuX6X=X=X6XwXpXtX) 9 x 0 8 l w : > a 1 = X , 2 y 4 . $ 3 e : + e : + > z G C s x [ e.F.B.B.m.D.K.G.L.L.P.^.E.^.",
"0X9X7X9X0X0X0XqX6X0X6X6X0XaXaXuXI.r @ z 8 > f X - 1 d 2 o X o 2 % $ O $ 3 b e $ e > : : 7 r a 8 9 ) q.D.m.N.m.V.V.K.G.L.P.W.^.^.",
"0X0X9X0X0X0XqXqX<XqXuX0XwX0X Xh.^ # # z s a f > g 1 ; > 2 , o o   % u 4 $ O X $ , & = % @ @ > 8 9 Q 7.b.b.B.N.K.K.G.K.L.P.W.^.^.",
"0X0X7X9X0X0XqXwX0XwX0X<X-X.X1.p k r r g s r a d d , ; 1 d 2 , o b H o.V 3 4 u e % % % = = : > > s I ' %.*.7.B.K.K.K.K.L.J.W.^./.",
"0X0X0X7X0X0X0XtX6X7X-X#X#X X>.8 a C N < = @ o > X ; 2 M ,   O b M M M b u b f 3 y t 1 1 1 1 = + j B U U Y %.0.n.K.K.G.G.L.P.^.(.",
"qX6X6X6X6X6X6XrX8XXXI.r.4.#.G a g M M , , , 2 2 V b o   O o o O = , = o   O = 2 2 g b a 2 > , = V y w l O.9.B.b.B.N.K.G.G.P.P.Z.",
"6X6XqXqXrXrXrXrX8X}.4./ Z h 2 , o , , 2 , 2 2 2 X O O X o ; o X     X X = > 2 m , > 2 > > 2 a , y u w y E O.$.*.C.T.P.G.Z.J.J.J.",
"-X9XuX6XrXrX-XR.M.>.G = X X = 2 2 2 , , , ; X   X O o o o o o o O X = o X = > > = , , , , > > , 4 w y y w i K Y 9.B.L.G.F.Z.!.W.",
"6X9XqX6X6X,XR.>.G g h = X X = > Z 2 , o o X     , =         X o X X X o       X o > > o = , ; o 4 y y u 7 & 8 s Y :.B.V.G.G.!.).",
"6X8X6X-X6X8XI.Q z z g a > = = o , X   ; , o o ; O     O o o = 2                 = , > ; ; > ; o y b y y w - # # q ) h.K.G.J.Y.Y.",
"-X-X-X-X8X-XI.) g g a > X X o ,     o 2 1     o 2 , , g Z 2 , > ; = X   X         X = X o > 2 ; C n y y y 8 6 # 8 Q w.K.J.Y.Y.J.",
"6X-X-X-X.XI.=.G h > X     X , , > ; , a ;   X 2 #.W M Z H g 2 2 S m 2 ; , = = X       X X ; > , u u e w w > : 6 6 I 1.n.F.Y.R.P.",
"rX8X-X#XI.[ h > Z h = X X X o ; d , o ; X X m @.4.F o > 2 M M F S g d a d M m m   X X   X o o X $ < w < % # # 8 @ x [ 7.F.Y.).).",
"6X-XR.Q - @ @ = 8 a : .   o 2 b d > = = , > d S > , > 2 2 a a g b d a d M g d 2 > ; o X X = = ; % < 1 ; + X - 9 z ^ =.>.8.N.U.K.",
"6X6XR.) - # 9 a h a < X O o , 2 2 X   = a g m Z g g g g g 2 a 2 2 > 1 2 g M g d d 2 = o X o ; 1 ; 3 2 1 : - : > x U ^ Y ^ %.5.8.",
"6XrXXX) # - z N N d : ; o , , , a X   > Z S Z g g Z g g g a a 2 > > , 2 M V Z Z Z M , = X o > a < 1 e a a 1 > : s g k j j A Y ^ ",
"rXaX.X) @ 8 N z N 2 , 1 3 o , , d > > g S Z g a a a d g g g g a 2 a 2 g m V S H S g 2 o X = 1 2 1 , > 2 d d a 1 ; 8 r s l x l k ",
"rX8XT.v = h A f g : , t b % O , 2 > g Z Z a > > > > a g g g h g h b d 2 d g m V S Z b > o o > d 2 , o , 1 f g Z e r a s l s r 9 ",
"#X X1.h - z D z f = , V M O O 2 = > h g a > > a > a a g g g g g 2 2 > > = , 2 d m m g 2 > ; 1 a > ; X X X 1 Z F U N a 8 7 : 8 r ",
"OXI.` h 8 h A A f > f J H O O b > > a d h > > a > a a g h g a > > a > X   X = 1 M m S m 2 > 2 2 1 > =     = f F / N r w 8 : 7 r ",
"XXF.) h 8 8 s Z N e V +.H     M Z d a g g d a a = = > a a 2 > > > 2 ; o   X o 1 d Z H F M d a 2 , , = X   X 1 N D f y N B f r y ",
"rXq.X G X h # a h > g / J = % m V g e t f f e > X @ r n E +.4.r.+.S e     $ > < r m S N n m n t n f 1 .   % w 1 e f f f n D l e ",
"8XI.h h = a X h a 8 s D N = = N f d 1 1 < e e 3 r f n V D W +.@.S S V e % @ + X u g N n f n d r d n t = + : 1 : < e t t f n f < ",
"8XXX` - = - X a > 8 r d > : r m f f y r w r f n % % % @ X + @ &   @ : @ . . X   > y n f y f f e f f y 1 : : = + : r d t e t t < ",
"8X$X4.. 8 - - 6 - e e > & > y f n n n d 1 1 f N 1 < < = +   X $ , 1 1 : 7 f n f < y N n f n n y f t e < : : % X : f m y e r f t ",
"8X1Xr.  r = : @ X > e 7 4 y y y t f d < & % : e w w r 1 < : w e J N w : t N n e < n V N N C C n n e & + @ @ X X : t f r 3 e t r ",
"rX3XM.  6 : 8     : < w w u y u t y a w : ; : : X X % % % & > < t > + $ t N e   7 f N N N V S n N w X X X X X # @ : < : : < e 1 ",
"gX3XI.d + # w . + + $ 4 4 4 4 u t e e e r 1 : % + & > < : : 1 r > : % > N J N & % e n f f n N n N < X + @ + @ % @ ; & % : t t < ",
"gXeX[.J   + w . $ + . & & $ & u & @ % : < 8 % X X $ @ @ X X X + : % +   % w : X X , e e r f f t n : X $ : % @ % % : % % < f n e ",
"$XgX1X=.+ 7 i . 5 +   * w u 4 & . $ % + % 1 : X @ . . + $ X . @ $ @ @ X X + X $ X % w f f f t e f @   + + X X $ . + : 1 t t e u ",
"iXiXgX@XE . . w . + w w *   + y & : % + + : # X X . . + + : : % @ + + X + % = : @ = : w e t t t t @     @ + X @ % : < 1 e e > : ",
"iXOX>XtXN.w * 9 8 # * 5 & * * < w : @   . + $ X   X . . = n f : : : = X + + @ & % = = : > e y y t % . X @ @ % : r t t t u : : % ",
"8X#XeXpX1XoXU.5.* + O + + + # 7 > : @ . X + X .   + +   e J J 1 f e : $ . .   . + $ @ : > w w e e : @ $ = < e e n n d r w > : & ",
"+X<XdXpX2XtXhX2XT.oX&XT.) 5 5 l : & @ @ @ @ X .   @ @ X 2 / F 2 r 1 : X         . X % : > : > , r e < : < t d d f f d e w > > : ",
"9X+X+X-X%X<X2X<XtXsXjX2XB.x * . - $ @ : : @ . X X = % & e S Z 2 = % $ + . X .       + % : : : : e t t e e f f y t y t t e e < : ",
"dX+X+X9X0XuXwX=X2X=X=XtXtX&XT.b.r < % : : + . + + @ = : 1 e > = $ @ % @ @ + @ X   . . + @ & : : < t f t r d f 3 e r t f e e : & ",
"J..XdXwX.X%X0X4XtX4X2X2X2X<X=X>XN e : = = X   X @ X $ : : @ X X = ; < : & $ X   . . .   . @ , w % t f t e f w ; 1 t t f d w = $ ",
",.,.G.*X9X%X=XsXyX2XtXiX2X2X0X$X` a   = a = X X = X X = > > > > . o % , , % X O X X X $ o = % % + : t t n n n e < e e t r a t < ",
"! X.,.| V.6X0X{.2X>X>X>X#X3XyX>XZ > = > > = X = = = X = = > = = X o , , , ; % O o o o o o o o o X & w e t f d w 1 w t e t t 1 < ",
"X.! { 3.3.} 8.).&X>XtXtX8XyX#XM.X = > > = = X = = X X X = = = = o % , < < , % o o o o X o X X X X = 1 1 e f d < w e e t t w < : ",
"k.g. .! { &.-.} :.h.).oX>XhXeXD.  = > = X = = = = X = X = = = = o % , , < , ; o $ o o o X O O . $ : w w e n f t e e e t e : % : ",
"l.j.x.l. .] | 3.| &.>.>.0. X{.9.  = >     = =   X X X X X X X = % = % , , % o o % o o X O O . X % : > : w f f y d w e t e = + = ",
"y.| V.4X%X .R <.k.8.,.| %.5.%.s = > X     X X   X X X X X X X X X O o O O X o X X O O X X . . X + % % % % e r e f w < t e $ . $ ",
"s.j.u.d.%XkX|.L ! ~ &.w.q.q.=.j = = X       X   X X X X X   X X     . .   . .   . O O X O X X X X % @ + @ < t e m 1 > f e +   X ",
"-.z.j. .<.`.dXkX| ~ } 2.1.1.%.A X X = =       X   X X X       X                   . . . O X O o % : : @ & e f f m w < f w     X ",
"-.;.<.<.p.Q.;XfXkXZ.# c | _ _ # e ; X     X       X             . .     X O . .   . o % o O o X % & : < 1 r t t t w w a >     + ",
"C.z.j.<. .| t.p.l.;X5Xw.} B.} @ w ; X . X   X   X   X X           . X     X   .   X o o o o X X $ % : : 3 e t t d w w e :     X ",
"f.u.;.;.X.X.p.i.p.'.dX).L.B.5 # < ; X .   X       X             O   O X   X   O   O o % o X o o % : : : > w e e a e 1 < # .   . ",
"f.f.;.X.u.p.A.S.'.A.Z.Y.|.] + w ; % o O X   X   X       .       . .         X   . O % % % o o o & % : : < < e e t e < : X     . ",
"{ { u.u.c.S.!.S.S.].v.H.C.q + i % % % o O   . O       X .             X X   X     o % % % o o o % : : : > < w e e t > $     . . ",
"L { u.C.~.~.~.~.i.].Z.(.V.0 5 5 $ % % o X   . X   X             X . X     X . X . X % , o % o % : : : < 3 e e e t r < +     . . ",
"C.C././.!.A.i.t.Z.a.p.P.y.0 + * X $ , o O .   X   O               X   X     . . . o % , , o o = < 1 w w 1 e t e e t <       .   ",
"C./._.C.c.a.A.S.a.p.~.;.q q + 0 O O , ; O   O X O O   X .       O   O   X O   . O o % , ; o o % e w e e t r t t e t 7   .   .   "
};
