/* XPM */
static char *_fa36e98f4494159ed605b246c5c7980ehvF9HEYFK94IlRz[] = {
/* columns rows colors chars-per-pixel */
"64 64 86 1 ",
"  c #1D3D00",
". c #1B4000",
"X c #254501",
"o c #254901",
"O c #2B4C03",
"+ c #2D4D08",
"@ c #304E0E",
"# c #2E5103",
"$ c #315405",
"% c #34550C",
"& c #36590D",
"* c #3A5C0E",
"= c #365611",
"- c #395716",
"; c #375811",
": c #3B5C13",
"> c #3E5E19",
", c #3D610B",
"< c #3E6115",
"1 c #3E6119",
"2 c #405F1A",
"3 c #40640E",
"4 c #416315",
"5 c #466916",
"6 c #496C17",
"7 c #43641B",
"8 c #46691D",
"9 c #4A6C1D",
"0 c #4D701C",
"q c #51751E",
"w c #466521",
"e c #486722",
"r c #466921",
"t c #4B6C23",
"y c #4E6D29",
"u c #506F2B",
"i c #4E7124",
"p c #4E712A",
"a c #517425",
"s c #557924",
"d c #597D26",
"f c #53742B",
"g c #56792C",
"h c #5A7C2E",
"j c #557531",
"k c #587733",
"l c #567931",
"z c #5B7C33",
"x c #5E7E39",
"c c #607F3C",
"v c #5E812D",
"b c #5E8134",
"n c #5F8139",
"m c #61852E",
"M c #618335",
"N c #668935",
"B c #698D36",
"V c #63843B",
"C c #66893C",
"Z c #698C3D",
"A c #6E913D",
"S c #70943E",
"D c #658541",
"F c #688743",
"G c #668941",
"H c #6B8C43",
"J c #6E8D49",
"K c #708F4A",
"L c #6E9145",
"P c #6E924A",
"I c #719345",
"U c #769945",
"Y c #73944B",
"T c #76994C",
"R c #799C4D",
"E c #759651",
"W c #779A53",
"Q c #7B9C52",
"! c #7EA24D",
"~ c #7EA155",
"^ c #81A456",
"/ c #83A55B",
"( c #89AC58",
") c #8DB159",
"_ c #8BAD65",
"` c #91B369",
/* pixels */
"CHQjecFc^ckcccekGlnnrlnrGnGnfCJuc0Zfkteeu2@FkceycukFcJD@jccDu-cj",
"zeuVckcxcukcucc21nlrrrpGo;rr==fECfeaH^k732u2ucc2@uDu-cEuyuccwyjk",
"C02CFsheccZkuuckr1&8nPp+pjlpjci:eccak7ucu2@kukucewewwyjuy@wycFuw",
"YViadcceeck2k22Kl1rlnW~lGGrrVKy hZc$a 4ucu2cyccKykuucDw y-yuyjyy",
"Zzx09A^k20e3Fe2knCnp11p8GDxge7ehsc23c3euuyuweuceyuukccckD- -cDFu",
"c0NhqchhcccseukepipllCPpGGPCwwzc3ck^kkaKcyk^FkukkwwkkkK_ywwDcuDk",
"d0cBhs06SNcs+2segggp8pCbr1lgeCL:uccZhhtkekuEucuu-ykuyKE-DyuFDuw@",
"qsqccdc0Sc6ccAhc1Pp1Pn<gy%fn7fPge3c2h2ccu2ekeykkeeu2@kD-D-ujyyyD",
"BvsvMUK0chZaeUF3pPCgggggg~gbigpbXchck52cecNkkkuc-kkucuckyw -EDyJ",
"N6eNAhdd^0hh5e0ugCCgpmm8bgGpb&1vhcus5cKuuFFuueee-cKcc-u2ujyjDy-j",
"c5,M^Fhcc0ch25ecgCmgCPPg8&8ipLi8dchc6ukk2e222uukeeeucukkycEcwyyy",
"eNKFv00uheccuukFC8pCCgmCgpPggvCpzceach2e2ekcFce22kF2euckujkcu-uJ",
"2ARc0ee3cekkukuZP8qC8&ipgipm1,vvh^k9eceueeukccckkkKccuueycuwkckc",
"vkmchFceFkkeeuuugPg8d8<CmP8P1CbCeq^K39u0uukcke22c2ukFccceDkuFFy@",
"ckKKeuNuukDeece28Pm6PmiCdP~dv1bgc2hF2heekuukeuF^ucE2-cKkc-eEEw@w",
"e2mc2ec2eeFKKk22b,pPppC&bpbgLn8lhAAu2cuccscKkeeuc2kkckkuw-kFkyuw",
"6NceMuKKc^Cz297zCz:L~fz8<<VCgbzgfGT;1rpjx1ryDnx-keeuekHcZt2t7-fc",
"NeveUs,^^T8CM99zgVCbngg7ff8gWPi%7grrpiP1rwpcppr-eesuucKecathytfO",
"KdemF6FuZ_chghZgz7z:pzfzfIVggzVii8ig~/8Gjjkn->1wuekc24k^cHkcFg7+",
"FkNceFN5ICaZc5gYH8Vehp8gVzn7%H/7pZtL/Ifnxr>yycky3kKu2ucckeuHf7cf",
"kKdccF3kY37VC87RzVQGVtpzC7z<7~H%9azL1pCtyyGJDjltceeuuuc^aDytf::f",
"6S9^m0eNt8It8hahMzpnf7gZGzHpnL<Gh#zV<1tCkG~Ex-rwkcu33c^cxGnjyyj=",
"u3K^0ckhgi^cftifHg#gr9tnHZCeHT7Izh:gn,bGGjkljlkweukckkzS>GaecVch",
"2eFSF0AcYhZCIgf*&laHpIzn:fVpVTzpZfM*pnGp-1rnrjjjeskukccc>gtw7;tj",
"553x^czCc#h^cgOgzGV7zTVzCHgPPtg4N88haCzZg%pzn7fptpnlfngkyelzwYj%",
"hcacIhs5UCt29gYh/ILH~Wt8zVIVagyMnha8O8MTp8ggVgxztt1>zyoptp=7kgzW",
"scazNczccIVcZiRg77gzlt<nnPgtefTHNIMM8mZV9fnfVzzkzt77nEzkpf-tV7zE",
"cckhchhZi6zhhtzI87ptazgCQ/tfg8C8zLNRzhc87hhfVg7>>-t>-fljftzklyDt",
"dUchhcsszIYHCTzizfVMzVlVTVGVng7tbZCRa4shhz87te7lnnprVk:Vk7l:rnYj",
"3cKah^ces(gf20z9t:ff7<tLHzegMzVCCNvIa9fM5paVCntgxkaezxrklt7+jVpV",
"4hcfc^05%ccZc0hZZ8t87ggzTQ7pg8LzhqqMaht8Nn9t:nLT:7Dk1gzzpf7rjg>y",
"c0qhBx3kZfU0hc9IpgInfHHgzIWMttazzhZCaIMMzMzg<ZJzge11HH7pet7x>wf1",
"cN7N/giQLhg0:hPgvnGirv1v8CC<gPpmzMMzVZn9&ppnVV%gpJppIQRhVabQa>Hl",
"h5hChhggazgpp7pLP1vv<inv8bCsCPmPtCz7gGh:VnzMgMtVxpglCVfMRv:7rzJe",
"I,RZ$cZaI:%hHLHVH19GCGWmPAbpPUp0fHGgagzGn9tp7gaVJpYj7a&iNhiNPny>",
"5Z^sMN$aT49HVVICbv1vCbm1bbggCmpmaMQQVpagf7pgzVaxj-Dg7VsNgigVk;-w",
"hRRNZcahVHHht7tCbbasivPigsivbggPVzGCzT/zafggHb<pWrbGngaMZbNg1tlp",
"TZMA98RCVCHg8anz<nngMP~CPCpbCgggQht7-n/~pff8Ln<fDfjGLLHNM8zh1wyw",
",L90GathhzRH:pIn<vnabCvqibbGbiggCzpar::fgtzaTHgnlJFzGTn8Uahfw7rE",
"fvMINCQaaLRMt78en<bb1nC1<1<bPCC<gIHV/Ipff;kgHze-rjxzLIshLNf%>pyP",
"C0ANL~NQh9MapLIJi~brnCGVPlnnpPWiprVHIPt8pOffg`zgp>nVpCZsZMpgtger",
"fAf#tz7gggHVzhVz$Gnt81G~lGg8pgp1gVPz7<pHaVt7:7HaDfzzH~LhCs8Vzgyx",
"va6vZhbZzbINVtPTnnfGEHg;plppnp1g7zhr:7zzathHG&ggxxVgCIhvvafTnt-y",
"vnMANMC9zzzfaOzVGr;tnVlrllnngppptzt8pfto8pgpzgz7xkz8fVhbhNCLzj7r",
"Z^IhHV<9ahzVV<gzHp7tygDQrlGp1pp1zLzpiag%geOCIgMHt>plCQn5bNnLkxlD",
"ICBT/H0bMLCHHVGQWFHHPGkV8pppnp1GzHGnznCz:gzCzPppnujr7hhadafRFp>p",
"sMNHVCH5VRHM4arHnnVknl7zGgpnP18PznHGCVzzgtCt77 8:jELng*<diiPDt+=",
"hI5fLgNZ7ILV%g&nxlt-nJwknrnnpnWn<7VVzzzQeCn8zfLHrGJzTIsZNnibfxpj",
"VnMMMbNUTAaS$gM<nn81#g&pPlppnG8pwjljegPxzf4agzRHpgVnLLaBsiMnMzeh",
"V:tzNv6vBmsLihRMgl1n1pg&PpGPpppppjlFzezfMO:gaI^h7gGghZai9dgtfatH",
"CiINdBmmvAMNs:Znpp1l8Pl1lplGrpPP7uyjjkIV7:MMfh958<fzhvasMagNr5gw",
"hin9$6vqvIhdz8Dapnp1lP1nl11p8pPPwcljjzDtVfa7sMaff*tVngddAsih::Dk",
"Ig6vd0mvA!pgVHJ>8WplCgppll1ll1nlDGpjawggThszahTz;%7ghZUMaSfgM8eV",
"hv6BS0vvsZblazzppgll8pGl1plGGlplylrizzVz8hzHbtMsnf9zz0i4sNfN/Z1;",
"6mvSSqvm&*nxy>kEn1bp1nPP1&gCnnlb&bllGCz*8f54Vzazg8%bIghBA45fbHVt",
"Bv6A)m6^vOnxF>uEbGpglpg8l&8ppnbpCLr8sahhzfICsgttnNrnTMbvvazp5tyH",
"3,vmqqqsbAaGnDj2ggg8&pb8p<ibi<1vz5<shiz^CafhsgMhpgnaf05U5hZM7:tz",
"q$qSmq6qb!ggyVEkbp88pCm8ibvCTbiC7bb8<fhiMtb:eQMZ%zCta9*ZM08ah8wz",
"A0vq3B!Bsv%iwwJEgpgggCPPgCB11CC1*vAg49a9$staz8iz1VCazs5Ava48zteV",
"N6B^SBs4sv8TPycx)PiipgdpWgpp1vGC05ivMasN<h:hz*Z^VzggMnhNhAg5ga7z",
"dzn0sBh0URvCHfn8Pq<1iggbgb88bbvPm6,0NZMsV9t75gnzgtgzaMN9qMatCVfV",
"G58VTh0(!Na0bfnapbbggggbiAC1<vbiNvsq0sghCtag<%:%-gHVthA49aazCfaI",
"HzVbvvsBN0NNRZNC8mggPPPmBgCPi<fssvBm04sINMgIg#pH7VVMh0MvdhMMa;wV",
"jpNg5i05mvU<0vnb0PPi8qqp.&gAC8$06vvvvAUUaaTZHV:Vzz%8b&5T0688wgxz"
};
